<?xml version="1.0" encoding="utf-8"?>
<!-- Generator: Adobe Illustrator 25.0.0, SVG Export Plug-In . SVG Version: 6.00 Build 0)  -->
<svg version="1.1" id="圖層_1" xmlns="http://www.w3.org/2000/svg" xmlns:xlink="http://www.w3.org/1999/xlink" x="0px" y="0px"
	 viewBox="0 0 100 100" style="enable-background:new 0 0 100 100;" xml:space="preserve">
<style type="text/css">
	.st0{fill:#666666;}
	.st1{fill:#ED6B2D;}
	.st2{fill:#FFFFFF;}
	.st3{fill:#198B3B;}
</style>
<g id="圖層_1_1_">
	<path class="st0" d="M30.7,3.6C22.4,3.5,15,4.4,9.7,6C7,7,5,7.7,3.7,8.7s-1.6,1.6-1.6,1.9c0,0.3,0.3,1.1,1.4,2.1
		c1.3,1,3.3,1.9,5.9,2.9c5.2,1.7,12.7,2.9,21,3c8.3,0.2,15.7-1,21-2.4c2.7-0.8,4.8-1.7,6-2.7c1.3-1,1.6-1.6,1.6-1.9
		c0-0.3-0.3-1.1-1.4-2.1c-1.3-1-3.3-1.9-5.9-2.9C46.4,4.9,39,3.8,30.7,3.6L30.7,3.6z M93.1,80.6c-1.3-0.4-3.2-0.7-4.9-0.7
		s-3.7,0.2-5.5,0.5l0,0h-0.2c-1.2,0.4-2.2,0.7-3,0.9L24.8,99.2l59-8.5c1.5-0.2,2.8-0.2,4.4-0.5c2.8-0.7,5.5-1.8,7-3.3
		c1.5-1.3,2-2.9,1.3-4.2C95.7,82,94.7,81.1,93.1,80.6L93.1,80.6z M87,83L87,83c0.9,0,1.7,0.4,1.9,0.7c0.4,0.1,0.4,0.4,0.5,0.7
		c0,0.3-0.3,0.5-0.4,0.9c-0.3,0.4-0.8,0.6-1.3,0.9c-0.5,0.2-1.2,0.5-1.9,0.8c-1.4,0.4-3,0.6-4.5,0.7c-1.5,0.1-2.6-0.2-3-0.6
		c-0.4-0.1-0.4-0.4-0.5-0.7c0-0.3,0.3-0.5,0.4-0.9c0.3-0.4,0.8-0.6,1.3-0.9s1.2-0.5,1.9-0.8c0.9-0.3,1.9-0.5,2.8-0.6
		C85.4,82.9,86.3,82.9,87,83L87,83z M4.6,70.2c-0.8,0.5-1.4,1.1-1.9,1.6c-1.3,1.3-1.6,2.4-1.6,2.9c0,0.6,0.3,1.6,1.4,3
		c1.3,1.4,3.3,2.9,5.9,4.1c5.2,2.4,12.7,4.1,21,4.3c8.3,0.2,15.7-1.4,21-3.7c2.7-1.1,4.8-2.5,6-4c1.3-1.3,1.6-2.4,1.6-2.9
		c0-0.6-0.3-1.6-1.4-3c-0.5-0.6-1.1-1.1-1.9-1.7c-0.3,2.4-1.6,4.1-3,5.4c-1.6,1.3-3.5,2.2-5.9,2.9c-4.6,1.4-10.3,2.1-16.2,2.1
		S18,80.4,13.4,78.8c-2.2-0.8-4.1-1.7-5.7-3C6.2,74.5,5,72.7,4.6,70.2z"/>
	<g id="圖層_2_1_">
	</g>
	<path class="st1" d="M96.9,20.4c0,9.2-7.5,16.7-16.7,16.7s-16.8-7.5-16.8-16.7s7.5-16.8,17-16.8C89.6,3.6,96.9,11.2,96.9,20.4z"/>
	<circle class="st2" cx="75.6" cy="25.7" r="4"/>
	<circle class="st2" cx="85.6" cy="25.7" r="4"/>
	<circle class="st2" cx="85.6" cy="15.9" r="4"/>
	<circle class="st2" cx="75.6" cy="15.9" r="4"/>
	<g id="圖層_3">
		<path class="st3" d="M87.1,78.2c0.1-0.4,0.3-1.5,0.3-1.5S81,71.3,75.7,66.2c-4.6-4.4-8.6-9.1-9.4-11.1l0,0c-0.5-1.3-0.2-2.4,1-3.2
			c1-0.8,2.5-1.4,4.1-2.1c1.4-0.6,2.8-1.3,3.5-2.2c0,0,0-0.1,0-0.1c0.4-1-0.1-2.5-2.1-4.1c-2.2-1.6-4.6-2.5-6.8-3l0,0
			c-0.3,0-0.6-0.2-1-0.2c-2.4-0.5-4.9-0.6-7-0.6c-1.3,0-2.5,0-3.7,0c-0.2,0-0.3,0.2-0.5,0.2c0.3,0.2-0.5-0.2-1-0.2
			c-0.2,0-0.5,0.2-0.6,0.2c-0.2,0-0.2,0.2-0.3,0.2l0.2,1.3c1.4-0.2,4-0.3,6.8-0.3c2.2,0,4.6,0.3,6.7,0.8c2.2,0.5,4,1.3,5.2,2.2
			c1.3,1,1.3,1.4,1,2.1c-0.5,0.6-1.6,1.3-3,1.9c-1.4,0.6-3,1.1-4.1,2.1c-1.1,1-1.9,2.2-1.3,4.3c1.1,3.3,5.6,8.3,10.3,13
			c5.6,5.6,11.4,11,11.4,11"/>
		<path class="st3" d="M9.6,17.7v11.1c0,0.2,0.1,0.3,0.3,0.4c14.9,1.8,28.2-1,41.1-5.7c0.1-0.1,0.2-0.2,0.2-0.3v-1.2
			c0-0.2-0.2-0.4-0.4-0.3c-13.4,2.4-26.9,2.4-40.7-4.1C9.8,17.2,9.6,17.4,9.6,17.7z"/>
		<path class="st3" d="M50.8,27.9c-12.6,3.2-26,5.2-40.8,4.2c-0.2,0-0.4,0.1-0.4,0.3v6c0,0.2,0.2,0.3,0.3,0.4c15,0.6,29-0.4,41.1-5
			c0.1-0.1,0.2-0.2,0.2-0.3v-5.2C51.2,28,51,27.8,50.8,27.9z"/>
		<path class="st3" d="M51.2,38.3c0-0.2-0.2-0.4-0.5-0.3c-12.3,4.3-26.3,5.4-41.2,4.8V44c14.5,3.5,28.5,5.5,41.1,4.6
			c0.2,0,0.3-0.2,0.3-0.3L51.2,38.3z"/>
		<path class="st3" d="M10.1,46.9L9.9,57.6c0,0.2,0.1,0.3,0.3,0.4c11.8,1.3,23.1-0.6,34.2-4.4c0.4-0.1,0.3-0.7-0.1-0.7
			c-11.5-0.1-23-1.2-33.7-6.3C10.3,46.5,10.1,46.6,10.1,46.9z"/>
		<path class="st3" d="M50.7,54.2c-13.1,5.7-26.6,9.2-40.8,7.6c-0.2,0-0.4,0.1-0.4,0.3v5.9c0,0.2,0.2,0.3,0.3,0.3
			c13.6,0.3,27.1,0.3,41.1-5c0.1-0.1,0.2-0.2,0.2-0.3v-8.6C51.2,54.3,51,54.1,50.7,54.2z"/>
		<path class="st3" d="M50.6,68.6c0-0.2-0.2-0.4-0.4-0.3c-14.1,3.7-27.8,4-41.2,3.7c0,0,0.2,0.2,1,0.8c1,0.6,2.5,1.4,4.6,2.2
			c0,0,0,0,0,0c4,1.3,9.7,1.9,15.2,2.2c0,0,0,0,0,0c5.6,0,11.3-0.5,15.2-1.7c2.1-0.6,3.7-1.3,4.6-1.9c0.5-0.4,0.7-0.6,0.8-0.7
			c0.1-0.1,0.1-0.2,0.1-0.3V68.6z"/>
	</g>
</g>
<g id="圖層_2_2_">
</g>
</svg>
