<?xml version="1.0" encoding="utf-8"?>
<!-- Generator: Adobe Illustrator 25.0.0, SVG Export Plug-In . SVG Version: 6.00 Build 0)  -->
<svg version="1.1" id="圖層_1" xmlns="http://www.w3.org/2000/svg" xmlns:xlink="http://www.w3.org/1999/xlink" x="0px" y="0px"
	 viewBox="0 0 100 100" style="enable-background:new 0 0 100 100;" xml:space="preserve">
<style type="text/css">
	.st0{fill:none;stroke:#198B3B;stroke-width:4;stroke-linecap:round;stroke-linejoin:round;}
</style>
<path class="st0" d="M29.2,30.7l7.4,4.7 M36.5,35.4c1.6,1,2.8,2.4,3.8,4.1c0.9,1.7,1.4,3.6,1.4,5.6c0,1.9,0.3,3.7,0.7,5.4
	 M36.5,35.4l10,6.3 M29.2,70.4l7.4-4.7 M36.5,65.7c1.6-1,2.8-2.4,3.8-4.1c0.9-1.7,1.4-3.6,1.4-5.6c0-1.9,0.3-3.7,0.7-5.4 M36.5,65.7
	l10-6.3 M46.5,41.7c2.6-3.5,6-6,9.9-7.3L82,25.8c3.9-1.3,8-1.4,11.9-0.2l3.9,1.1L60.3,50.5 M46.5,41.7c-1.9,2.6-3.3,5.6-4.1,8.8
	 M60.3,50.5l37.4,23.8l-3.8,1.1c-3.9,1.2-8,1.1-11.9-0.2l-25.5-8.6c-3.9-1.3-7.3-3.8-9.9-7.3 M60.3,50.5l-13.8,8.8 M29.2,30.7
	c-0.9,1.8-2.2,3.4-3.7,4.7c-1.5,1.3-3.2,2.2-5,2.8c-1.8,0.5-3.7,0.7-5.6,0.4c-1.9-0.3-3.7-0.9-5.3-2c-1.6-1-3.1-2.4-4.2-4.1
	c-1.2-1.7-2-3.6-2.5-5.6c-0.5-2-0.6-4.1-0.3-6.2c0.3-2.1,0.9-4.1,1.8-5.9c1.9-3.6,5.1-6.2,8.7-7.3S20.6,7,23.9,9.1s5.7,5.5,6.7,9.6
	C31.6,22.7,31.1,27.1,29.2,30.7L29.2,30.7z M29.2,70.4c1,1.8,1.6,3.8,1.8,5.9c0.3,2.1,0.1,4.2-0.3,6.2c-0.5,2-1.3,3.9-2.5,5.6
	c-1.2,1.7-2.6,3.1-4.2,4.1c-1.6,1-3.5,1.7-5.3,2c-1.9,0.3-3.8,0.1-5.6-0.4c-1.8-0.5-3.5-1.5-5-2.8c-1.5-1.3-2.8-2.9-3.7-4.7
	c-1.9-3.6-2.4-8-1.4-12c1-4,3.4-7.5,6.7-9.6s7.2-2.7,10.9-1.6C24.1,64.1,27.3,66.8,29.2,70.4L29.2,70.4z"/>
</svg>
