<?xml version="1.0" encoding="utf-8"?>
<!-- Generator: Adobe Illustrator 25.0.0, SVG Export Plug-In . SVG Version: 6.00 Build 0)  -->
<svg version="1.1" id="圖層_1" xmlns="http://www.w3.org/2000/svg" xmlns:xlink="http://www.w3.org/1999/xlink" x="0px" y="0px"
	 viewBox="0 0 64 64" style="enable-background:new 0 0 64 64;" xml:space="preserve">
<style type="text/css">
	.st0{clip-path:url(#SVGID_2_);}
	.st1{fill:#ED6B2D;}
	.st2{fill:#F9F9F9;}
</style>
<g>
	<defs>
		<rect id="SVGID_1_" width="64" height="64"/>
	</defs>
	<clipPath id="SVGID_2_">
		<use xlink:href="#SVGID_1_"  style="overflow:visible;"/>
	</clipPath>
	<g class="st0">
		<path class="st1" d="M0.7,61.8C-0.5,63-0.1,64,1.6,64h59.3c1.7,0,3.1-1.4,3.1-3.1V1.6c0-1.7-1-2.1-2.2-0.9L0.7,61.8z M49.8,46.8
			c0,1.7-1.4,3.1-3.1,3.1h-11c-1.7,0-2.1-1-0.9-2.2l12.8-12.8c1.2-1.2,2.2-0.8,2.2,0.9V46.8"/>
		<path class="st2" d="M2.4,61.3h1V64h-1V61.3z M5.3,61.3h1V64h-1V61.3z M8.3,61.3h1V64h-1V61.3z M11.3,59h1v5h-1V59z M14.4,61.3h1
			V64h-1V61.3z M17.4,61.3h1V64h-1V61.3z M20.4,61.3h1V64h-1V61.3z M23.4,59h1v5h-1V59z M26.5,61.3h1V64h-1V61.3z M29.5,61.3h1V64
			h-1V61.3z M32.5,61.3h1V64h-1V61.3z M35.4,59h1v5h-1V59z M38.6,61.3h1V64h-1V61.3z M41.5,61.3h1V64h-1V61.3z M44.5,61.3h1V64h-1
			V61.3z M47.5,59h1v5h-1V59z M50.6,61.3h1V64h-1V61.3z M53.6,61.3h1V64h-1V61.3z M56.6,61.3h1V64h-1V61.3z M59.6,59h1v5h-1V59z"/>
	</g>
</g>
</svg>
