<?xml version="1.0" encoding="utf-8"?>
<!-- Generator: Adobe Illustrator 25.0.0, SVG Export Plug-In . SVG Version: 6.00 Build 0)  -->
<svg version="1.1" id="圖層_1" xmlns="http://www.w3.org/2000/svg" xmlns:xlink="http://www.w3.org/1999/xlink" x="0px" y="0px"
	 viewBox="0 0 100 100" style="enable-background:new 0 0 100 100;" xml:space="preserve">
<style type="text/css">
	.st0{fill:#666666;}
	.st1{stroke:#FAFCFB;stroke-miterlimit:10;}
	.st2{fill:#198B3B;}
	.st3{fill:#F7F9F8;}
</style>
<path class="st0" d="M80.4,47.3L70.2,77.8c-0.2,0.5-0.4,0.9-0.8,1.3s-0.8,0.6-1.3,0.8L5.7,98.4c-0.6,0.2-1.2,0.2-1.7,0
	c-0.6-0.1-1.1-0.5-1.5-0.9c-0.4-0.4-0.7-0.9-0.8-1.5c-0.1-0.6-0.1-1.2,0.1-1.7L22,33.6c0.1-0.4,0.4-0.8,0.7-1.2
	c0.3-0.3,0.7-0.6,1.1-0.8l28.8-11.8c0.6-0.2,1.2-0.3,1.8-0.2c0.6,0.1,1.2,0.4,1.6,0.9L79.6,44c0.4,0.4,0.7,1,0.9,1.5
	C80.6,46.1,80.5,46.7,80.4,47.3L80.4,47.3z"/>
<line class="st1" x1="3.6" y1="96.4" x2="37.6" y2="62.4"/>
<path class="st2" d="M81,45.4l15.1-15.1c2-2,3.1-4.7,3.1-7.6c0-2.8-1.1-5.5-3.1-7.6L84.8,3.9c-1-1-2.2-1.8-3.5-2.3
	C80,1,78.6,0.7,77.2,0.7S74.4,1,73.1,1.5c-1.3,0.5-2.5,1.3-3.5,2.3L54.6,19"/>
<path class="st3" d="M48.9,51.1c-0.7-0.7-1.6-1.3-2.6-1.7c-1-0.4-2-0.6-3.1-0.6c-1.1,0-2.1,0.2-3.1,0.6c-1,0.4-1.9,1-2.6,1.7
	c-0.7,0.7-1.3,1.6-1.7,2.6c-0.4,1-0.6,2-0.6,3.1c0,1.1,0.2,2.1,0.6,3.1c0.4,1,1,1.9,1.7,2.6c1.5,1.5,3.5,2.3,5.7,2.3
	c2.1,0,4.2-0.8,5.7-2.3c1.5-1.5,2.3-3.5,2.3-5.7C51.2,54.6,50.4,52.6,48.9,51.1z"/>
</svg>
