<svg xmlns="http://www.w3.org/2000/svg" viewBox="0 0 726.42 625.09"><defs><style>.cls-1{isolation:isolate;}.cls-2{fill:#c79177;}.cls-3{fill:#f8f8f8;}.cls-4{fill:#fcc;}.cls-5{fill:#c68fcc;}.cls-6{fill:#ffb8b8;}.cls-7{fill:#b67dba;}.cls-8{fill:#51312d;}.cls-9{fill:#603a35;}.cls-10{fill:#5a2724;}.cls-11{fill:#ffbcbe;}.cls-12{fill:#f9c995;}.cls-13{fill:#f9dbaf;}.cls-14{fill:#614146;}</style></defs><g id="工作區域_1" data-name="工作區域 1" class="cls-1"><polygon class="cls-2" points="726.42 625.09 0 625.09 0 0 723.87 0 726.42 625.09"/><g id="形狀_1" data-name="形狀 1"><path class="cls-3" d="M729.84,389.61q-20.4,18.79-40.88,40C551.91,571.65,274.84,534.86,3.42,494.4V625.09H729.84Z" transform="translate(-3.42)"/></g><path class="cls-4" d="M595.51,271.46c3,5,9.34,22.59,12.62,34.14a5.35,5.35,0,0,1-3.69,6.59A5.27,5.27,0,0,1,601,312l-6.81-2.76L576,270.42a5.54,5.54,0,0,1,2.15-7.06C582.2,260.93,590.05,262.46,595.51,271.46Z" transform="translate(-3.42)"/><path class="cls-4" d="M550.38,437.39c0,3.19-7.32,91.21-7.32,91.21s17.22,2.17,16.92,1.47,10.25-74.39,10.25-74.39Z" transform="translate(-3.42)"/><path class="cls-5" d="M595.51,271.46c3,5,5.7,10.83,9,22.38,1.22,4.27-.44,3.48-4.88,3.42-2.44,0-9.11,3.43-9.11,3.43L576,270.42a5.54,5.54,0,0,1,2.15-7.06C582.2,260.93,590.05,262.46,595.51,271.46Z" transform="translate(-3.42)"/><path class="cls-4" d="M538.18,318.31c.13.31-1.47,53.34-1.47,53.34l48.44,169.22,15.13-5.52-11.17-39.54L552,318.64Z" transform="translate(-3.42)"/><path class="cls-6" d="M556.7,237.24s2.83,17.62-9.76,21.95c0,0,24.95,2.56,30.73-.41,0,0-8.24-8.17-5.15-25.45C572.5,233.27,560.86,227.94,556.7,237.24Z" transform="translate(-3.42)"/><path class="cls-6" d="M592.35,290.16a99.83,99.83,0,0,1-9,24.72l-2,16.49-43.2-2.59-4.4-28.27s-6.24-31.32-6.22-31.46c1.46-1.7,5.11-5.16,15.34-8.71a25.72,25.72,0,0,0,8.22-4.52,13.74,13.74,0,0,0,4.18-5.11v-.16a17,17,0,0,0,1.25-3.62l15.62-.51a49,49,0,0,0,1.83,6.82c.14.27.33.6.57,1a17.82,17.82,0,0,0,5,4.39c.86.59,1.76,1.15,2.62,1.68a42.55,42.55,0,0,1,4.1,2.82C598.5,273.34,593.56,283.81,592.35,290.16Z" transform="translate(-3.42)"/><path class="cls-7" d="M592.76,290.33c-2.11,11.75-9.45,24.55-9.45,24.55l-1.95,16.49-2.71-.16L574,331l-23.76-1.43-4.63-.27-7.47-.45-4.42-28.31s-6.22-31.32-6.2-31.44a22.05,22.05,0,0,1,7.28-5.38c.64-.34,1.34-.67,2.11-1,1.68-.76,3.65-1.55,5.85-2.35l.71-.25c.52-.2,1-.41,1.52-.63a24,24,0,0,0,6-3.64,13.7,13.7,0,0,0,4.26-5.11v-.16c.51-1.05,0-4.17,1.25-3.62,9.88,4.13,12-1.84,15.62-.51,1.66.61,1.07,5.23,1.83,6.82.14.27.33.6.57,1a14,14,0,0,0,3.75,3.53c.39.29.82.59,1.23.86s.83.57,1.26.84l1.35.84a42.55,42.55,0,0,1,4.1,2.82l1,.9c.39.37.78.73,1.13,1.1C597.84,274.71,593.82,284.42,592.76,290.33Z" transform="translate(-3.42)"/><path class="cls-8" d="M582,325.73s9.47,28.36,9.36,41.52c-.12,15.23-25.54,145-25.54,145L537,505.91,563.4,327.45Z" transform="translate(-3.42)"/><path class="cls-9" d="M537.69,325.1s-10.7,35.24-6.83,47.53c16.59,52.53,33.67,125.29,42.46,145.85l26.61-4.17L571.36,325.39Z" transform="translate(-3.42)"/><path class="cls-8" d="M535.77,315.65,537,328.82l45.13-2,1.47-12.08S552.31,318.82,535.77,315.65Z" transform="translate(-3.42)"/><path class="cls-4" d="M580.29,217.78c0,11.75-7.3,21.32-16.56,21.4s-16.81-9.36-16.91-21.1,7.31-21.32,16.56-21.4S580.19,206.06,580.29,217.78Z" transform="translate(-3.42)"/><path class="cls-6" d="M588.94,322.22s6-4.66,5.36-9.55-7.94-6.48-8.78,2.94Z" transform="translate(-3.42)"/><path class="cls-10" d="M562.91,191.24c-22.27,4.66-26,19.14-28.38,28.15-2,6.83-6.95,25.19,7.36,28.34,0,0,16.45,6.41,15.07-9.78-2.56-2.59-10.49-11.91-5.45-22.85a36.62,36.62,0,0,0,12-16.52s15.22,14.78,14.35,7.3S574.94,188.73,562.91,191.24Z" transform="translate(-3.42)"/><path class="cls-10" d="M566.78,190.94c20.65,2.63,19.27,25.06,23.15,30.95s8.92,28.06-10.6,27.25c-3.63-.15-8.63-2.78-7.16-12.72,0,0,10.73-8.32,6.67-20.14a10.58,10.58,0,0,1-4.66-8c-.47-5.5-3.38-7.83-8-9.93C566.23,198.38,559.44,190,566.78,190.94Z" transform="translate(-3.42)"/><path class="cls-9" d="M558.26,317.27l-5.07,1.45a152.64,152.64,0,0,0-18.35-55c.64-.34,1.34-.67,2.11-1,1.68-.76,3.65-1.55,5.85-2.35l.71-.25c.52-.2,1-.41,1.52-.63C552.17,274,560.06,296.23,558.26,317.27Z" transform="translate(-3.42)"/><path class="cls-9" d="M579.9,315.41l-4.79,1.43a108.65,108.65,0,0,0,3.4-59c.39.29.82.58,1.23.86s.84.57,1.27.84l1.35.84c1.56,1,6.38,3.74,6.73,4.11C589.4,277.51,587.9,298.48,579.9,315.41Z" transform="translate(-3.42)"/><path class="cls-4" d="M606.74,301.61a14.61,14.61,0,0,1,1.35,6.95c-.24,2.19-3.73,4.81-6,5.07-8,.9-46.38,6.62-46.38,6.62L558,312s22.84-6.46,40.76-10.32Z" transform="translate(-3.42)"/><path class="cls-11" d="M525.82,284.11c1.6,5.64,10,22.28,16.2,32.57a5.32,5.32,0,0,0,9.53-.8L554.2,309l-15.81-39.84a5.54,5.54,0,0,0-6.62-3.25C527.18,267.23,523,274,525.82,284.11Z" transform="translate(-3.42)"/><path class="cls-6" d="M537.14,307.91S543,319.66,548.48,322c11.48,4.95,40.46.21,40.46.21l-3.42-6.61-29.85-4.33a9.71,9.71,0,0,1-1.8-2.56Z" transform="translate(-3.42)"/><path class="cls-5" d="M525.82,284.11c1.6,5.64,10,22.28,16.2,32.57a5.32,5.32,0,0,0,9.53-.8L554.2,309l-15.81-39.84a5.54,5.54,0,0,0-6.62-3.25C527.18,267.23,523,274,525.82,284.11Z" transform="translate(-3.42)"/><path class="cls-9" d="M581.17,527.31s3.61,20.57,3.37,25.11,3.17,3.92,4.06,6.33,6.21,22.67,28.51,13.7a3.57,3.57,0,0,0,2.26-3.47,15.88,15.88,0,0,0-6.17-12.19c-7.44-5.66-13.66-29.19-13.66-29.19s-2.72-4.74-7-1.8S585.46,532.49,581.17,527.31Z" transform="translate(-3.42)"/><path class="cls-9" d="M543.72,514.54s-1.74,20.83-3.1,25.16,1.3,4.72,2.32,7.14c2.4,5.76,9,19.29,27.68,15.92a4.35,4.35,0,0,0,3.6-3.64c.48-3.56,0-9.63-6.66-14.9-7.36-5.87-6.07-24.74-6.07-24.74s-1.57-5.35-6.45-3.59S546.55,520.67,543.72,514.54Z" transform="translate(-3.42)"/><path class="cls-12" d="M566.41,396.91a5.85,5.85,0,0,1-6.11-.35l2.26-3.18a1.94,1.94,0,0,0,2,0c1.6-.92,6.74-6.46,5.14-39.48a108.69,108.69,0,0,0-3.91-23.49,261.7,261.7,0,0,0-12.49-33.79c-6.46-15.19-11.72-27.41-9.76-36.61a15.34,15.34,0,0,1,.86-2.72c1.71-4.05,6-7,11.14-9a7.62,7.62,0,0,1-.31,2.33v.16a14.3,14.3,0,0,1-1.95,2.92,13.11,13.11,0,0,0-4.41,3.7,5.84,5.84,0,0,0-.84,1.45c-3.3,7.83,2.3,21,8.8,36.27a261,261,0,0,1,13,35.55,110.91,110.91,0,0,1,3.75,23.1C574.88,379.5,572.52,393.62,566.41,396.91Z" transform="translate(-3.42)"/><path class="cls-12" d="M595.71,361.65l-2.81,2.7c-15.62-16.34-10.09-29-5.7-39.15a39.91,39.91,0,0,0,3.53-10.63c.86-7.17.63-10.38-.8-11.06a6.49,6.49,0,0,1-1.21-.73c-7.07-4.81-7.69-19.85-8.22-32a93.34,93.34,0,0,0-1-12,7.11,7.11,0,0,0-.62-2,10,10,0,0,0-5.13-4.42h0a38.79,38.79,0,0,0-.57-4.31,14.51,14.51,0,0,1,9.14,6.87,18.94,18.94,0,0,1,1.5,6.68c.27,2.58.39,5.65.55,9.08.43,10.18,1,23.8,5.68,28.35a5.57,5.57,0,0,0,1.52,1.07c3.9,1.82,4,6.5,3,15.06a44.2,44.2,0,0,1-3.91,11.74C586.44,336.85,582,347.18,595.71,361.65Z" transform="translate(-3.42)"/><rect class="cls-9" x="463.26" y="391.66" width="5.86" height="171.55"/><ellipse class="cls-9" cx="466.19" cy="563.21" rx="24.52" ry="5.64"/><path class="cls-13" d="M488.88,337.18c1.21-4.76,15.62-61.37,16.26-63.51s0-4.28-1.17-4.62l-17.57-6a7.78,7.78,0,0,1-4.74-4.48h0L480,241.27a.62.62,0,0,0,0-.33.91.91,0,0,0-.16-.45v-.12h0c-1-1.25-5.31-2.19-10.44-2.19s-9.41.94-10.43,2.19h0v.12a1,1,0,0,0-.11.43,1,1,0,0,0,0,.34l-1.59,17.28h0l-.35.63a7.75,7.75,0,0,1-3.9,3.46l-17.94,6.42H435c-1.11.47-1.56,2.43-1,4.53s16.44,63.5,16.44,63.5v-.51l.14.55c-.45.82-21.59,40-15.62,52.09,3.44,7,68.21,4.72,69.95.9,5.58-12.41-15.62-53-15.62-53Z" transform="translate(-3.42)"/><path class="cls-14" d="M569.45,217.43a9.15,9.15,0,0,1,2.56,0,12.63,12.63,0,0,1,2.48.74c.27,0,.43-.33.19-.47a8.84,8.84,0,0,0-5.23-.9c-.33,0-.35.59,0,.55Z" transform="translate(-3.42)"/><path class="cls-14" d="M553.79,217.94a4.42,4.42,0,0,1,2.56-.92,12.61,12.61,0,0,1,3.13,0,.28.28,0,0,0,0-.55,9.94,9.94,0,0,0-3.44,0,4.5,4.5,0,0,0-2.73,1.1c-.26.25.13.64.41.39Z" transform="translate(-3.42)"/><path class="cls-14" d="M563.54,219.68c-.12,2-.2,3.72-.3,5.58v1.37c0,.3-.13.76.14,1s.8,0,1.13,0a11.46,11.46,0,0,0,1.43-.1.27.27,0,0,0,.27-.27.28.28,0,0,0-.27-.28h-2.35l.24.1h0l.1.24a9.17,9.17,0,0,1,0-2v-2c0-1.29.09-2.56.15-3.91a.27.27,0,1,0-.54,0Z" transform="translate(-3.42)"/><path class="cls-14" d="M560.69,232.31a5.34,5.34,0,0,0,3.47,1.23,6.28,6.28,0,0,0,3.63-.94c.29-.21,0-.7-.29-.51a7.09,7.09,0,0,1-3.28.83,5,5,0,0,1-3.18-1.06C560.78,231.66,560.43,232.09,560.69,232.31Z" transform="translate(-3.42)"/><path class="cls-14" d="M571.19,220.25a2.83,2.83,0,0,0-.51,2.6.77.77,0,0,0,.31.65.58.58,0,0,0,.69-.12,1.3,1.3,0,0,0,.25-.66V222a7,7,0,0,0-.21-1.64.33.33,0,0,0-.43-.2.31.31,0,0,0-.2.2,5.45,5.45,0,0,0-.29,1.54c0,.42,0,1.26.51,1.34s.72-.75.74-1.14a2,2,0,0,0-.29-1.33.32.32,0,0,0-.43,0A.92.92,0,0,0,571,222c.2.33.67,0,.51-.29h0v-.12a.33.33,0,0,1,0-.14v-.11h-.43a1.45,1.45,0,0,1,.22.84,1,1,0,0,1,0,.43v.17h.25a.38.38,0,0,1,0-.15,1,1,0,0,1,0-.24,3,3,0,0,1,0-.6,3.88,3.88,0,0,1,.25-1.12h-.62a4.08,4.08,0,0,1,.17,1.39,4.21,4.21,0,0,1,0,.71,1.22,1.22,0,0,1,0,.27h0a.24.24,0,0,0,0-.12,2,2,0,0,0,0-.35v-.76a1.52,1.52,0,0,1,.38-1c.29-.26-.14-.67-.41-.41Z" transform="translate(-3.42)"/><path class="cls-14" d="M558.25,220.25a.56.56,0,0,0-.63.1,1,1,0,0,0-.25.58,4.72,4.72,0,0,0-.16,1.39c0,.42.16,1.16.72,1.12s.65-.74.71-1.17a6.36,6.36,0,0,0,0-1.51,1.87,1.87,0,0,0-.18-.73.45.45,0,0,0-.62-.15s0,0,0,0c-.37.27-.43.86-.49,1.29a2.5,2.5,0,0,0,.12,1.27.68.68,0,0,0,.48.59.55.55,0,0,0,.61-.37,2.21,2.21,0,0,0,0-.81,2,2,0,0,0-.14-.86.26.26,0,0,0-.29-.19.25.25,0,0,0-.23.27c0,.33,0,.65,0,1v.41s.21,0,.21,0v-.16a2.32,2.32,0,0,1,0-1.56v-.32h-.27v.28a4.18,4.18,0,0,1,0,1,3,3,0,0,1-.12.94v.13h.14v-.13a.49.49,0,0,1,0-.24,2.58,2.58,0,0,1,0-1,1.12,1.12,0,0,1,.09-.53.61.61,0,0,0,0-.19h0s.47-.35.2-.49Z" transform="translate(-3.42)"/></g></svg>