<?xml version="1.0" encoding="utf-8"?>
<!-- Generator: Adobe Illustrator 25.0.0, SVG Export Plug-In . SVG Version: 6.00 Build 0)  -->
<svg version="1.1" id="圖層_1" xmlns="http://www.w3.org/2000/svg" xmlns:xlink="http://www.w3.org/1999/xlink" x="0px" y="0px"
	 viewBox="0 0 100 100" style="enable-background:new 0 0 100 100;" xml:space="preserve">
<style type="text/css">
	.st0{fill:#666666;}
	.st1{fill:#ED6B2D;}
	.st2{fill:#198B3B;}
</style>
<path class="st0" d="M9.7,7.7L7,24.4c-1.2,7.2-0.3,14.7,2.8,21.3h11.1v-38H9.7z"/>
<path class="st0" d="M22.3,7.7v28.2H23c1.4,0,2.5-1.3,2.5-2.7V7.7H22.3z"/>
<path class="st0" d="M30.7,9.1V32c0,0.3-0.1,0.8-0.3,0.9c-2.2,2.6-3.9,3.4-5,5.1l-1,1.1c-0.3,0.3-0.4,0.6-0.4,0.9v17.5
	c0,0.8,0.6,1.4,1.2,1.4H26c0.7,0,1.2-0.6,1.2-1.4V46.1c0-0.8,0.6-1.4,1.2-1.4h2.1c0.4,0,0.8-0.3,1.1-0.8c0.6-1.2,1.7-3.7,2.5-5.9
	c1-2.2,2.9-3.6,5.1-3.6h16.7c3.2,0,5.6,2.9,5.6,6.5v20.4c0,0.8-0.6,1.4-1.2,1.4H3.7c-0.7,0-1.4,0.8-1.2,1.5L4.2,78
	c0.1,0.6,0.6,1.2,1.2,1.2h85.1c0.6,0,1.1-0.5,1.2-1.1l1.9-13.8c0-0.2,0-0.2,0-0.3L89.6,8.9c0-0.8-0.6-1.2-1.2-1.2H31.9
	C31.2,7.7,30.7,8.3,30.7,9.1z"/>
<path class="st0" d="M93,11.6c-1.1,0.2-1.8,1.1-1.8,2.3l1,11.6c0.1,1.1,1,2.1,2.1,1.9s1.8-1.1,1.8-2.4l-1-11.6
	c-0.1-1.1-1-1.9-1.9-1.9H93V11.6z"/>
<path class="st1" d="M78.3,18c-5.1,0-9.1,4.7-9.1,10.3s4.1,10.3,9.1,10.3c5.1,0,9.1-4.5,9.1-10.3S83.4,18,78.3,18z"/>
<rect x="2.3" y="84.3" class="st0" width="95.4" height="6.4"/>
<polygon class="st2" points="15.9,61.8 17.2,47.5 14.6,47.5 "/>
</svg>
