<?xml version="1.0" encoding="utf-8"?>
<!-- Generator: Adobe Illustrator 25.0.0, SVG Export Plug-In . SVG Version: 6.00 Build 0)  -->
<svg version="1.1" xmlns="http://www.w3.org/2000/svg" xmlns:xlink="http://www.w3.org/1999/xlink" x="0px" y="0px"
	 viewBox="0 0 100 100" style="enable-background:new 0 0 100 100;" xml:space="preserve">
<style type="text/css">
	.st0{fill:#666666;}
	.st1{fill:#ED6B2D;}
</style>
<g id="圖層_1">
	<path class="st0" d="M88.6,7.2H11.4c-2.6,0-5,0.9-6.8,2.5s-2.8,3.8-2.8,6V67c0,2.3,1,4.4,2.8,6s4.3,2.5,6.8,2.5h28.9v8.6H25.9v8.6
		h48.2v-8.6H59.6v-8.6h28.9c2.6,0,5-0.9,6.8-2.5s2.8-3.8,2.8-6V15.8c0-2.3-1-4.4-2.8-6C93.6,8.1,91.2,7.2,88.6,7.2z M88.6,67.1H11.4
		V15.8h77.2V67.1z"/>
</g>
<g id="圖層_2">
	<path class="st1" d="M50,31c0,9.1,0,18.2,0,27.3c5.8,0,11.6,0,17.5,0c0-4.8,0-9.6,0-14.4c-3.6-1-4.3-4.7-3.3-8.1
		c0.4-1.5,2.1-6.6,3.1-7.1c-3.6-2.9-5.3-3.7-8.3-5.2c-0.6,2.8-1.4,4.4-3,5.7C54.3,30.3,52.1,30.5,50,31z"/>
	<path class="st1" d="M50,31c0,9.1,0,18.2,0,27.3c-5.8,0-11.6,0-17.5,0c0-4.8,0-9.6,0-14.4c3.6-1,4.3-4.7,3.3-8.1
		c-0.4-1.5-2.1-6.6-3.1-7.1c3.6-2.9,5.3-3.7,8.3-5.2c0.6,2.8,1.4,4.4,3,5.7C45.6,30.3,47.8,30.5,50,31z"/>
</g>
</svg>
