<?xml version="1.0" encoding="utf-8"?>
<!-- Generator: Adobe Illustrator 25.0.0, SVG Export Plug-In . SVG Version: 6.00 Build 0)  -->
<svg version="1.1" id="圖層_1" xmlns="http://www.w3.org/2000/svg" xmlns:xlink="http://www.w3.org/1999/xlink" x="0px" y="0px"
	 viewBox="0 0 100 100" style="enable-background:new 0 0 100 100;" xml:space="preserve">
<style type="text/css">
	.st0{clip-path:url(#SVGID_2_);}
	.st1{fill:#ED6B2D;}
	.st2{fill:#198B3B;}
</style>
<g>
	<g>
		<defs>
			<rect id="SVGID_1_" x="1.2" y="1.1" width="97.7" height="97.7"/>
		</defs>
		<clipPath id="SVGID_2_">
			<use xlink:href="#SVGID_1_"  style="overflow:visible;"/>
		</clipPath>
		<g class="st0">
			<path class="st1" d="M74.6,90.9c-0.5,2.7-0.7,4.4-1.9,6.4c-0.7,1.2-1.9,2-3,1.9c-1-0.2-2-0.7-3-1.2c-11.5-5.7-20.7-16-30-25.9
				c-1.3-1.5-3.7-4.2-6.1-6.7c-2-2.2-1.9-5.6,0.2-7.7c0.5-0.5,0.8-0.8,1.3-1.3c2.4-2.4,6.1-2.4,8.3,0.2c9.4,10.6,20,21.9,31.2,28
				C73.8,85.1,75.6,84.8,74.6,90.9 M61.7,46.1c-2.9-3-8.1-8.1-10.9-11.1c-7.4-7.4-15.3-13.6-24.4-17.2c-4-1.7-8.6-3.9-7.9-7.9
				c0.3-1.3,1.2-2.7,2.4-3.4c1-0.7,4.7-0.8,6.6-0.7c1.7,0.2,4.9,0.7,6.6,1c4.4,1.3,21.4,12.1,33.3,26.3c2,2.4,1.7,5.7-0.5,7.9
				C63.8,43.5,61.7,46.1,61.7,46.1"/>
			<path class="st2" d="M53.6,61.5c10.4-14,31-30.8,41.3-31.5c0.7,0,1.2,0.2,1.7,0.5c0.5,0.3,1,0.8,1.3,1.5c1,2.2,0.5,4.9,0.7,7.4
				c0.3,2.5-4.5,4.5-6.2,5.2C80,49.3,72.8,60.2,63.2,70.6C59.8,68.6,53.6,61.5,53.6,61.5 M47.8,35.1C35.7,48.4,33.7,54.8,19.5,60.5
				c-2.9,1.7-5.9,1.5-11.6,4.7c-1.5,0.7-4.4,0.3-4.9-1.3c-1.7-5.6-1.2-7.2,3-9.4C16,49.4,24.3,41,32.3,32.1c1.2-1.3,3.5-3.9,4.9-5.4
				C41.8,28.2,47.8,35.1,47.8,35.1 M26.1,83.9c3.5-2.4,8.8-5.1,12.3-7.6c2.9,3.2,9.3,9.8,9.3,9.8C43,90.3,35.4,96.4,30.2,98.3
				c-1.3,0.5-2.5-0.2-3.4-1.5c-1.5-2.5-2.4-5.4-2.5-8.6C24.3,86.1,24.9,84.6,26.1,83.9 M54.2,11.4c6.2-4.9,13.1-8.6,17.9-9.9
				c1.3-0.3,2.7,0.3,3.4,1.9c1.3,2.9,2,5.7,1.9,8.8c0,1.5-0.7,2.9-1.7,3.7c-3,2.2-8.4,3.9-11.5,5.6C64.2,21.3,58.8,15.4,54.2,11.4"
				/>
			<path class="st1" d="M89.9,51.9c8.4,4.2,11.5,5.7,5.4,16.7c-0.7,1.3-1.9,1.3-3,1c-3.9-1.2-10.6-6.2-14.3-9.1
				C84.9,54.3,89.9,51.9,89.9,51.9"/>
			<path class="st1" d="M10.8,47.1c-2-0.8-6.1-1.5-7.7-3c-0.8-0.7-1.3-1.9-1.5-3c-0.3-3.2,0.3-5.9,1.5-8.8c0.3-0.8,0.8-1.3,1.3-1.9
				c0.5-0.3,1.2-0.5,1.9-0.5c4,0.5,11.3,4.5,15.2,6.9C15.8,43.7,10.8,47.1,10.8,47.1z"/>
		</g>
	</g>
</g>
</svg>
