<?xml version="1.0" encoding="utf-8"?>
<!-- Generator: Adobe Illustrator 25.0.0, SVG Export Plug-In . SVG Version: 6.00 Build 0)  -->
<svg version="1.1" id="群組1" xmlns="http://www.w3.org/2000/svg" xmlns:xlink="http://www.w3.org/1999/xlink" x="0px" y="0px"
	 viewBox="0 0 301.6 70" style="enable-background:new 0 0 301.6 70;" xml:space="preserve">
<style type="text/css">
	.st0{fill:#F8F8F8;}
</style>
<path class="st0" d="M50,46.7c-1.9,0.6-3.3,2.2-3.8,4.1L39,38.5c-0.8-1.3-2.2-5-4.3-3.6C33.6,35.7,34,38,34,39.2v26.4
	c0,1.3-0.4,3.7,1.1,4.3c1.3,0.5,2-0.5,2.6-1.4l2.1-3.3l4.6-7.1l0.3-0.5c0.7-1.1-1-2.1-1.8-1l-3.3,5c-1.2,1.9-2.5,3.7-3.7,5.7
	c0-0.3,0-0.7,0-1V38.3c0-0.2,0-0.5,0-0.8c0.3,0.5,0.6,0.9,0.8,1.3l7.9,13.5l0.2,0.3c0.2,0.4,0.7,0.6,1.1,0.4H47
	c0.3,0,0.7-0.2,0.9-0.5l0,0l0,0c0.1-0.2,0.1-0.3,0.1-0.5c0-1.8,1.3-3.3,3.1-3.6c2-0.3,3.9,1.1,4.2,3.1s-1.1,3.9-3.1,4.2
	c-1.5,0.2-3-0.5-3.8-1.9c-0.3-0.5-0.9-0.7-1.4-0.4c-0.5,0.3-0.7,0.9-0.4,1.4l0,0c1.5,2.7,5,3.7,7.8,2.2c2.7-1.5,3.7-5,2.2-7.8
	C55.3,47,52.6,45.9,50,46.7z M36,36.4L36,36.4L36,36.4z M35.5,36.5L35.5,36.5C35.5,36.5,35.5,36.5,35.5,36.5L35.5,36.5z M35.5,68.1
	c0-0.1,0-0.1,0.1-0.1S35.5,68,35.5,68.1L35.5,68.1z"/>
<g>
	<path class="st0" d="M96.8,16.9c0,0.8-0.1,1.6-0.4,2.3c-0.2,0.7-0.7,1.4-1.2,1.9c-0.7,0.7-1.5,1.2-2.4,1.6c-1,0.4-2.1,0.6-3.2,0.5
		h-2.8V29h-4.6V11.3h7.5c1,0,1.9,0.1,2.8,0.3c0.7,0.2,1.4,0.5,2.1,0.9c0.7,0.4,1.3,1.1,1.6,1.8C96.7,15.1,96.9,16,96.8,16.9z
		 M92.1,17c0-0.5-0.1-0.9-0.4-1.3c-0.2-0.3-0.6-0.6-0.9-0.8c-0.4-0.2-0.9-0.3-1.4-0.3c-0.5,0-1.1,0-1.8,0h-0.8v5.3h1.3
		c0.6,0,1.3-0.1,1.9-0.2c0.5-0.1,0.9-0.3,1.3-0.6c0.3-0.2,0.5-0.6,0.6-0.9C92.1,17.9,92.1,17.4,92.1,17L92.1,17z"/>
	<path class="st0" d="M107.9,27.6c-0.2,0.2-0.5,0.4-0.8,0.6c-0.3,0.2-0.6,0.4-1,0.6c-0.4,0.2-0.9,0.3-1.3,0.4
		c-0.5,0.1-1,0.1-1.5,0.1c-1.2,0-2.3-0.4-3.2-1.2c-0.8-0.8-1.3-1.9-1.3-3c0-0.8,0.2-1.7,0.7-2.4c0.5-0.6,1.1-1.2,1.8-1.5
		c0.9-0.4,1.9-0.6,2.9-0.8c1.2-0.1,2.4-0.3,3.7-0.3v-0.1c0.1-0.7-0.3-1.3-0.9-1.5c-0.8-0.3-1.8-0.5-2.7-0.4c-0.8,0-1.5,0.1-2.3,0.4
		c-0.8,0.3-1.4,0.4-1.7,0.6H100v-3.2c0.5-0.1,1.2-0.2,2.2-0.4c1-0.2,2-0.2,3.1-0.2c2.4,0,4.2,0.4,5.3,1.1c1.1,0.8,1.7,2.1,1.6,3.5
		V29H108L107.9,27.6L107.9,27.6z M107.9,25.5v-2.8c-0.6,0-1.2,0.1-1.9,0.2c-0.5,0.1-1,0.1-1.5,0.3c-0.4,0.1-0.7,0.3-1,0.6
		c-0.2,0.3-0.4,0.6-0.3,1c0,0.2,0,0.5,0.1,0.7c0.1,0.2,0.2,0.4,0.3,0.5c0.2,0.2,0.4,0.3,0.7,0.4c0.4,0.1,0.8,0.1,1.2,0.1
		c0.4,0,0.9-0.1,1.3-0.3C107.2,26,107.6,25.8,107.9,25.5z"/>
	<path class="st0" d="M125.8,19.7h-0.4c-0.3-0.1-0.6-0.1-0.9-0.1c-0.4,0-0.8,0-1,0c-0.5,0-1.1,0-1.6,0.1c-0.5,0.1-1,0.2-1.5,0.4v9
		h-4.3V15.6h4.3v1.9c0.7-0.7,1.6-1.2,2.5-1.6c0.6-0.3,1.3-0.4,1.9-0.4c0.2,0,0.3,0,0.5,0c0.2,0,0.3,0,0.5,0V19.7z"/>
	<path class="st0" d="M136.8,28.9c-0.5,0.1-1,0.2-1.5,0.3c-0.6,0.1-1.3,0.1-1.9,0.1c-1.3,0.1-2.6-0.2-3.7-1
		c-0.9-0.9-1.3-2.2-1.2-3.5v-6.3h-1.8v-2.9h1.8v-3.8h4.3v3.8h4v2.9h-4v4.7c0,0.5,0,0.9,0,1.2c0,0.3,0.1,0.6,0.2,0.9
		c0.1,0.3,0.3,0.5,0.6,0.7c0.4,0.2,0.8,0.3,1.2,0.2c0.3,0,0.6-0.1,0.9-0.1c0.3-0.1,0.5-0.2,0.8-0.3h0.4L136.8,28.9L136.8,28.9z"/>
	<path class="st0" d="M152.8,29h-4.3v-6.6c0-0.5,0-1.1-0.1-1.6c0-0.4-0.1-0.8-0.3-1.2c-0.2-0.3-0.4-0.5-0.7-0.6
		c-0.4-0.2-0.8-0.2-1.3-0.2c-0.4,0-0.8,0.1-1.2,0.2c-0.5,0.2-0.9,0.4-1.3,0.6V29h-4.3V15.6h4.3v1.5c0.7-0.5,1.4-1,2.2-1.4
		c0.7-0.3,1.5-0.5,2.4-0.5c1.3-0.1,2.5,0.4,3.4,1.3c0.9,1,1.3,2.4,1.2,3.8L152.8,29L152.8,29z"/>
	<path class="st0" d="M169.9,23.1H160c0,0.9,0.5,1.8,1.2,2.4c1,0.6,2.1,0.9,3.2,0.8c0.9,0,1.8-0.2,2.6-0.5c0.7-0.3,1.4-0.6,2-1h0.5
		v3.4c-0.9,0.4-1.8,0.7-2.7,0.9c-0.9,0.2-1.9,0.3-2.9,0.3c-2.2,0.1-4.4-0.5-6.2-1.8c-1.5-1.3-2.3-3.2-2.1-5.2c-0.1-2,0.6-3.9,2-5.2
		c1.5-1.4,3.5-2.1,5.6-1.9c1.8-0.1,3.6,0.5,4.9,1.7c1.2,1.3,1.8,3,1.6,4.7v1.5L169.9,23.1z M165.6,20.6c0-0.7-0.2-1.4-0.7-2
		c-0.5-0.5-1.2-0.7-1.9-0.7c-0.7,0-1.4,0.2-2,0.6c-0.6,0.5-1,1.3-1,2.1H165.6z"/>
	<path class="st0" d="M182.6,19.7h-0.4c-0.3-0.1-0.6-0.1-0.9-0.1c-0.4,0-0.8,0-1,0c-0.5,0-1.1,0-1.6,0.1c-0.5,0.1-1,0.2-1.5,0.4v9
		h-4.3V15.6h4.3v1.9c0.7-0.7,1.5-1.2,2.4-1.6c0.6-0.3,1.3-0.4,1.9-0.4c0.2,0,0.3,0,0.5,0c0.2,0,0.3,0,0.5,0V19.7z"/>
</g>
<g>
	<path class="st0" d="M200.1,29.2c-1.2,0-2.5-0.2-3.6-0.6c-2.2-0.7-3.9-2.4-4.7-4.6c-0.5-1.3-0.7-2.6-0.7-4c0-1.3,0.2-2.6,0.6-3.8
		c0.4-1.1,1-2.1,1.8-2.9c0.8-0.8,1.8-1.4,2.9-1.8c1.2-0.4,2.5-0.7,3.7-0.6c0.7,0,1.3,0,2,0.1c0.6,0.1,1.1,0.2,1.7,0.3
		c0.5,0.1,1,0.3,1.4,0.5c0.4,0.2,0.8,0.4,1.1,0.5v4.3h-0.5c-0.2-0.2-0.5-0.4-0.8-0.7s-0.7-0.5-1.1-0.8c-0.4-0.3-0.9-0.5-1.4-0.6
		c-0.5-0.2-1.1-0.3-1.6-0.2c-0.6,0-1.2,0.1-1.8,0.3c-0.6,0.2-1.2,0.6-1.6,1c-0.5,0.5-0.9,1.1-1.1,1.8c-0.3,0.9-0.5,1.8-0.4,2.7
		c0,0.9,0.1,1.9,0.5,2.8c0.3,0.7,0.7,1.3,1.2,1.8c0.5,0.4,1,0.7,1.6,0.9c0.6,0.2,1.2,0.3,1.8,0.3c0.6,0,1.1-0.1,1.6-0.2
		c0.5-0.2,1-0.4,1.5-0.7c0.4-0.2,0.7-0.5,1.1-0.7c0.3-0.2,0.6-0.5,0.8-0.7h0.5v4.2c-0.4,0.2-0.9,0.4-1.3,0.5s-0.8,0.3-1.3,0.5
		s-1.1,0.3-1.6,0.4C201.5,29.2,200.8,29.2,200.1,29.2z"/>
	<path class="st0" d="M213.8,28.8h-4.3V10.3h4.3V28.8z"/>
	<path class="st0" d="M231.4,22.2c0.1,1.9-0.6,3.8-1.9,5.2c-3.1,2.5-7.6,2.5-10.8,0c-1.3-1.4-2-3.3-1.9-5.2
		c-0.1-1.9,0.6-3.8,1.9-5.2c3.2-2.5,7.6-2.5,10.8,0C230.9,18.4,231.6,20.3,231.4,22.2z M226.2,25.4c0.3-0.4,0.5-0.8,0.6-1.2
		c0.2-0.7,0.2-1.3,0.2-2c0-0.7-0.1-1.3-0.2-2c-0.1-0.5-0.3-0.9-0.6-1.3c-0.2-0.3-0.5-0.5-0.9-0.7c-0.4-0.1-0.8-0.2-1.1-0.2
		c-0.4,0-0.7,0-1.1,0.2c-0.4,0.1-0.7,0.4-0.9,0.7c-0.3,0.4-0.5,0.8-0.6,1.3c-0.2,0.7-0.2,1.3-0.2,2c0,0.6,0.1,1.3,0.2,1.9
		c0.1,0.5,0.3,0.9,0.6,1.3c0.2,0.3,0.6,0.5,0.9,0.7c0.4,0.1,0.8,0.2,1.2,0.2c0.4,0,0.8-0.1,1.1-0.2
		C225.6,25.9,225.9,25.7,226.2,25.4z"/>
	<path class="st0" d="M243.1,28.7c-0.5,0.1-1,0.2-1.5,0.3c-0.6,0.1-1.3,0.1-1.9,0.1c-1.3,0.1-2.6-0.3-3.7-1
		c-0.9-0.9-1.4-2.2-1.2-3.5v-6.3H233v-2.9h1.8v-3.8h4.3v3.8h4v2.9h-4v4.7c0,0.5,0,0.9,0,1.2c0,0.3,0.1,0.6,0.2,1
		c0.1,0.3,0.3,0.5,0.6,0.6c0.4,0.2,0.8,0.3,1.2,0.2c0.3,0,0.6-0.1,0.9-0.2c0.3-0.1,0.5-0.2,0.8-0.3h0.4L243.1,28.7L243.1,28.7z"/>
	<path class="st0" d="M259,28.8h-4.3v-6.6c0-0.5,0-1.1-0.1-1.6c0-0.4-0.1-0.8-0.3-1.2c-0.2-0.3-0.4-0.5-0.7-0.6
		c-0.4-0.1-0.9-0.2-1.3-0.2c-0.4,0-0.8,0.1-1.2,0.2c-0.4,0.2-0.9,0.4-1.3,0.6v9.5h-4.3V10.3h4.3v6.6c0.7-0.5,1.4-1,2.2-1.4
		c0.7-0.3,1.5-0.5,2.3-0.5c1.3-0.1,2.5,0.4,3.4,1.3c0.9,1.1,1.3,2.4,1.2,3.8L259,28.8L259,28.8z"/>
	<path class="st0" d="M267.4,13.6h-4.5v-3.2h4.5V13.6z M267.3,28.8H263V15.5h4.3L267.3,28.8z"/>
	<path class="st0" d="M284.7,28.8h-4.3v-6.6c0-0.5,0-1.1-0.1-1.6c0-0.4-0.1-0.8-0.3-1.2c-0.2-0.3-0.4-0.5-0.7-0.6
		c-0.4-0.2-0.8-0.2-1.3-0.2c-0.4,0-0.8,0.1-1.2,0.2c-0.5,0.2-0.9,0.4-1.3,0.6v9.5h-4.3V15.5h4.3V17c0.7-0.5,1.4-1,2.2-1.4
		c0.7-0.3,1.5-0.5,2.4-0.5c1.3-0.1,2.5,0.4,3.4,1.3c0.9,1,1.3,2.4,1.2,3.8L284.7,28.8L284.7,28.8z"/>
	<path class="st0" d="M301.6,27.3c0,1.1-0.2,2.2-0.5,3.2c-0.3,0.8-0.8,1.5-1.5,2c-0.7,0.5-1.5,0.9-2.3,1.1c-1,0.2-2,0.3-3.1,0.3
		c-0.9,0-1.8-0.1-2.8-0.2c-0.9-0.1-1.7-0.3-2.3-0.4V30h0.5c0.6,0.2,1.3,0.4,1.9,0.6c0.7,0.2,1.3,0.2,2,0.2c0.7,0,1.3-0.1,1.9-0.2
		c0.4-0.1,0.8-0.3,1.1-0.6c0.3-0.3,0.4-0.6,0.5-1c0.1-0.5,0.2-0.9,0.2-1.4v-0.3c-0.5,0.4-1.1,0.8-1.7,1c-2.2,0.8-4.7,0.3-6.4-1.3
		c-1-1.1-1.5-2.8-1.5-5.1c0-1,0.1-1.9,0.5-2.8c0.3-0.8,0.7-1.5,1.3-2.1c0.5-0.6,1.2-1,1.9-1.3c0.7-0.3,1.5-0.5,2.3-0.5
		c0.7,0,1.3,0.1,2,0.2c0.6,0.2,1.1,0.4,1.6,0.7l0.1-0.6h4.2L301.6,27.3L301.6,27.3z M297.4,24.6v-6c-0.3-0.1-0.6-0.2-0.9-0.2
		c-0.3-0.1-0.7-0.1-1-0.1c-0.9-0.1-1.9,0.3-2.5,1c-0.6,0.8-0.9,1.7-0.9,2.7c-0.1,1,0.2,1.9,0.7,2.7c0.6,0.5,1.3,0.8,2.1,0.8
		c0.4,0,0.9-0.1,1.3-0.2C296.6,25.1,297,24.9,297.4,24.6z"/>
</g>
<path class="st0" d="M33.6,33.9c-0.5,0-0.9,0-1.4,0h-26c-1.5,0-3-0.1-4.4,0c-1,0-1.8,0.8-1.8,1.7c0,0.6,0.3,1.2,0.8,1.5
	c0.5,0.3,1,0.6,1.5,0.9l13.8,8.1c-3,0.7-4.9,3.8-4.1,6.8c0.7,3,3.8,4.9,6.8,4.1s4.9-3.8,4.1-6.8c-0.4-1.5-1.4-2.8-2.8-3.6
	c-0.5-0.3-1.1-0.1-1.4,0.4s-0.1,1.1,0.4,1.4l0,0c1.7,1,2.4,3,1.6,4.8c-0.8,1.9-3,2.7-4.8,1.9c-1.5-0.7-2.4-2.3-2.2-3.9
	c0.3-1.8,1.8-3.2,3.6-3.2l0,0c0.6,0,1-0.4,1-1v-1c0.2-0.4,0-1-0.4-1.2l0,0L5.8,37.7L2.9,36l-0.2-0.1h29.9c-0.2,0.1-0.3,0.2-0.4,0.3
	l-3.4,2.2l-6.6,4.2l-0.4,0.3c-1.1,0.7-0.1,2.4,1,1.8l5.6-3.6c2-1.3,4.1-2.5,6-3.9c0.8-0.5,1.1-1.6,0.5-2.4
	C34.7,34.2,34.2,33.9,33.6,33.9z M1.8,35.9L1.8,35.9C1.8,35.9,1.7,35.9,1.8,35.9L1.8,35.9z M33.4,35.4L33.4,35.4z"/>
<path class="st0" d="M68.5,32.4l-3.3-2.1L58,25.7l-0.5-0.3c-1.1-0.7-2.1,1-1,1.8l5,3.3c1.9,1.2,3.8,2.5,5.7,3.7c-0.3,0-0.7,0-1,0
	H38.3h-0.8c0.5-0.3,0.9-0.6,1.3-0.8l13.5-7.9l0.3-0.2c0.4-0.2,0.6-0.7,0.4-1.1v-0.9c0-0.4-0.2-0.7-0.6-0.9l0,0c0,0,0,0-0.1,0l0,0
	c-0.1,0-0.2-0.1-0.3,0l0,0c-2,0-3.7-1.7-3.7-3.7s1.7-3.7,3.7-3.7c1.4,0,2.6,0.8,3.3,2c0.9,1.8,0.2,3.9-1.5,4.9
	c-0.5,0.3-0.7,0.9-0.4,1.4s0.9,0.7,1.4,0.4l0,0c2.7-1.5,3.7-5,2.2-7.7s-5-3.7-7.7-2.2c-2.4,1.3-3.5,4.1-2.7,6.7
	c0.6,1.9,2.1,3.3,4.1,3.8L38.5,31c-1.3,0.8-5,2.2-3.6,4.3c0.8,1.2,3.1,0.8,4.3,0.8h26.4c1.3,0,3.7,0.4,4.3-1.1
	C70.4,33.8,69.4,33,68.5,32.4z M36.3,34.1C36.4,34,36.4,34,36.3,34.1C36.4,34.1,36.4,34.1,36.3,34.1C36.4,34.1,36.4,34,36.3,34.1z
	 M36.5,34.6L36.5,34.6z M68,34.6C68,34.6,68.1,34.6,68,34.6c0.1,0,0.1,0,0.1,0S68,34.6,68,34.6L68,34.6z"/>
<path class="st0" d="M36,6.2c0-1.5,0.1-3,0-4.4c0-1-0.8-1.8-1.7-1.8c-0.6,0-1.2,0.3-1.5,0.8c-0.3,0.5-0.6,1-0.9,1.5l-8,13.8
	c-0.7-3-3.7-4.9-6.7-4.2c-0.7,0.2-1.4,0.5-1.9,0.9c-2.6,1.8-3.3,5.3-1.5,7.9s5.3,3.3,7.9,1.5c0.7-0.5,1.3-1.2,1.8-1.9
	c0.3-0.5,0.1-1.1-0.4-1.4c-0.5-0.3-1.1-0.1-1.4,0.4l0,0l0,0c-1,1.8-3.2,2.4-5,1.4c-0.1,0-0.2-0.1-0.2-0.1c-1.4-1-2-2.8-1.4-4.4
	c0.7-1.9,2.8-2.8,4.6-2.2c1.5,0.5,2.4,1.9,2.4,3.5l0,0c0,0.6,0.4,1,1,1H24c0.4,0.2,0.9,0,1.1-0.5l0,0l7.1-12.2l1.7-2.9L34,2.7v29.9
	c-0.1-0.1-0.2-0.3-0.3-0.4l-2.1-3.4l-4.2-6.6l-0.3-0.4c-0.7-1.1-2.4-0.1-1.8,1l3.6,5.6c1.3,2,2.5,4.1,3.8,6c0.5,0.8,1.6,1.1,2.4,0.5
	c0.5-0.3,0.8-0.8,0.8-1.4c0-0.5,0-0.9,0-1.4V6.2L36,6.2z M33.9,1.8C33.9,1.8,33.9,1.7,33.9,1.8C33.9,1.7,34,1.7,33.9,1.8z M34.5,1.9
	L34.5,1.9L34.5,1.9C34.5,1.9,34.5,1.9,34.5,1.9z"/>
<g>
	<path class="st0" d="M95.4,56.8c0,0.4-0.1,0.8-0.4,1.1c-0.3,0.3-1.2,0.4-2.7,0.4l-0.6-1.8c0.4,0,0.8,0.1,1.1,0.1
		c0.2,0,0.5,0,0.7-0.1c0.1-0.1,0.2-0.2,0.2-0.3v-4.3h-2.2c-0.1,2.2-0.6,4.5-1.5,6.5l-1.6-1c0.9-2.3,1.3-4.8,1.3-7.3v-9h5.7
		L95.4,56.8L95.4,56.8z M93.7,45.4v-2.7h-2.2v2.7H93.7z M93.7,50v-2.9h-2.2V50L93.7,50z M106.1,56.8l-1.1,1.5
		c-0.9-0.6-1.8-1.2-2.6-2c-0.7,0.7-1.4,1.4-2.2,1.9l-1.2-1.3c0.8-0.6,1.6-1.2,2.2-2c-1.2-1.7-2-3.6-2.3-5.7h-0.2v9h-1.8V40.9h8.7
		c0,1-0.1,2.1-0.3,3.1c-0.1,0.7-0.3,1.3-0.6,1.9c-0.2,0.3-0.5,0.5-0.8,0.6c-0.8,0.2-1.7,0.3-2.6,0.2l-0.7-1.7c1.6,0,2.5-0.1,2.7-0.3
		c0.2-0.7,0.4-1.4,0.4-2.1h-5v4.9h6.7c-0.1,2.5-0.8,5-2,7.3C104.2,55.6,105.1,56.3,106.1,56.8z M103.5,49.3h-2.8
		c0.3,1.4,0.8,2.8,1.6,4.1C102.8,52.1,103.3,50.7,103.5,49.3z"/>
	<path class="st0" d="M132.6,51.8h-9.1c-0.7,0.8-1.4,1.4-2.3,2v2.6c1.3-0.2,2.5-0.5,3.8-0.8v1.6c-1.9,0.5-3.8,0.9-5.7,1.1l-0.4-1.4
		c0.3-0.2,0.5-0.5,0.5-0.8v-1.3c-1.2,0.6-2.4,1.1-3.7,1.5l-0.7-1.6c2.2-0.6,4.3-1.6,6.1-3h-6v-1.6h8c-0.1-0.3-0.3-0.7-0.5-1l1.8-0.4
		c0.3,0.4,0.5,0.9,0.7,1.3h7.4L132.6,51.8L132.6,51.8z M122.4,49.5h-1.8v-3h-1.8c-0.1,1.4-0.9,2.7-2.2,3.4l-1.2-1.2
		c0.9-0.4,1.6-1.2,1.7-2.2h-1.8v-1.4h5.3V44h-4.1v-3h1.7v1.7h2.4v-2h1.7L122.4,49.5z M132.7,44.2h-4v2.7h3.5v1.5h-8.7v-1.5h3.4v-2.7
		h-3.9v-1.5h3.9v-2.1h1.7v2.1h4L132.7,44.2z M132.8,56.8l-0.9,1.6c-1.8-0.4-3.5-1.1-5-2.2c-1.1-1-2-2.2-2.5-3.7l1.7-0.3
		c0.4,0.8,0.9,1.6,1.5,2.2c1.1-0.7,2.2-1.4,3.1-2.3l1.4,1.1c-0.9,0.8-1.9,1.6-3,2.3C130.2,56.1,131.5,56.6,132.8,56.8z"/>
	<path class="st0" d="M159.5,56.9l-1.1,1.5c-3.9-3-6.4-6.1-7.6-9.4c-1,3.7-3.5,6.8-7.6,9.3l-1.2-1.5c5.2-3.3,7.8-7.6,7.8-13v-3.2
		h1.9v4.2c0,2.3,0.8,4.6,2.2,6.5C155.4,53.4,157.3,55.4,159.5,56.9z"/>
	<path class="st0" d="M186.2,45.6h-5.4v10.6c0,0.9-0.5,1.7-1.4,1.9c-0.7,0.1-1.4,0.1-2.1,0.1h-1.9l-0.6-1.8c1,0,2.1,0.1,3.4,0.1
		c0.4,0,0.6-0.2,0.6-0.6v-9.4c-1,2.1-2.3,4-3.8,5.6c-1.5,1.7-3.4,3-5.4,4.1l-1-1.6c1.9-0.9,3.7-2.2,5.2-3.8c1.5-1.5,2.7-3.3,3.6-5.3
		H169v-1.8h9.8v-3.3h1.9v3.3h5.4L186.2,45.6L186.2,45.6z"/>
	<path class="st0" d="M202.1,54.6l-1.2,1.3l-1.4-1.7c-0.8,1.5-1.8,2.9-3,4.2l-1.1-1.5c1.2-1.2,2.2-2.6,2.9-4.1
		c-0.9-0.9-1.7-1.7-2.4-2.4c0.4-1.5,0.7-2.9,0.9-4.1c-0.4,0-0.8,0.1-1.2,0.1l-0.1-1.7l1.6-0.1c0.3-2.3,0.5-3.7,0.5-4.3l1.7,0.3
		c-0.2,1.7-0.3,3-0.5,3.8c0.4,0,0.8-0.1,1.1-0.2c0.1-0.6,0.1-1.1,0.1-1.6h1.6c0,0.1,0,0.6,0,1.3c0.2,0,0.3,0,0.5-0.1v1.7
		c-0.2,0.1-0.4,0.1-0.7,0.1c-0.2,2.2-0.6,4.5-1.2,6.6C201.2,53.4,201.8,54.1,202.1,54.6z M199.8,46c-0.3,0-0.7,0.1-1.2,0.2
		c-0.2,1.2-0.4,2.4-0.8,3.7l1.1,1.1C199.3,49.3,199.6,47.7,199.8,46z M205.5,53.6c-0.7,1.5-1.6,2.9-2.7,4.2l-1.4-1
		c1-1.2,1.9-2.6,2.6-4L205.5,53.6z M212.9,52.2h-4.7v6h-1.7v-6h-4.8v-1.6h4.8v-1.3h-3v-5.8h-1.2v-1.6h1.2v-1.4h1.7v1.4h4.1v-1.4h1.7
		v1.4h1.5v1.5H211v5.8h-2.9v1.3h4.7L212.9,52.2L212.9,52.2z M209.3,44.9v-1.4h-4.1v1.4L209.3,44.9z M209.3,47.8v-1.4h-4.1v1.4H209.3
		z M213.1,56.9l-1.5,1c-0.7-1.5-1.6-2.9-2.5-4.2l1.5-0.9C211.5,54.1,212.3,55.4,213.1,56.9L213.1,56.9z"/>
	<path class="st0" d="M240,46.2l-1,1.6c-2.9-1.3-5.5-3-7.9-5c-2.4,1.9-4.9,3.5-7.6,4.9l-1.2-1.5c3.2-1.3,6-3.3,8.5-5.7l1.9,0.7
		l-0.3,0.4C234.7,43.4,237.2,45,240,46.2z M237.5,58.3h-1.9v-1h-9.3v1h-1.9v-8.2h13L237.5,58.3z M235.7,55.5v-3.7h-9.3v3.7
		L235.7,55.5z M235.6,47.9h-9.1v-1.7h9.1V47.9z"/>
	<path class="st0" d="M266.4,52h-7.7v6.3h-1.8V52h-7.8v-1.8h7.8v-7.3h-7.2v-1.8H266v1.8h-7.3v7.3h7.7L266.4,52z M254.8,48.7
		l-1.7,0.8c-0.7-1.7-1.5-3.3-2.6-4.8l1.7-0.8C253.2,45.4,254.1,47,254.8,48.7L254.8,48.7z M265.2,44.7c-0.7,1.7-1.7,3.3-2.8,4.8
		l-1.6-0.8c1.1-1.5,2.1-3.1,2.8-4.8L265.2,44.7z"/>
	<path class="st0" d="M293.4,47.9l-1.5,1.2c-0.4-0.6-0.8-1.2-1.2-1.8c-5.1,0.6-9.8,1-14.2,1.1l-0.4-1.7c1.9-0.6,4-2.7,6.2-6.4l2,0.4
		c-1.3,2.1-2.9,4.1-4.7,5.8c2.6-0.1,5.9-0.3,9.8-0.8c-0.9-1-1.9-2-3-2.8l1.5-1.2C289.9,43.6,291.8,45.6,293.4,47.9z M291.6,58.2
		h-1.8v-0.9h-10.5v0.9h-1.8v-8.4h14.1V58.2z M289.8,55.6v-4h-10.5v4H289.8z"/>
</g>
</svg>
