<?xml version="1.0" encoding="utf-8"?>
<!-- Generator: Adobe Illustrator 25.0.0, SVG Export Plug-In . SVG Version: 6.00 Build 0)  -->
<svg version="1.1" id="群組1" xmlns="http://www.w3.org/2000/svg" xmlns:xlink="http://www.w3.org/1999/xlink" x="0px" y="0px"
	 viewBox="0 0 1863.3 441.2" style="enable-background:new 0 0 1863.3 441.2;" xml:space="preserve">
<style type="text/css">
	.st0{fill:#666666;}
	.st1{enable-background:new    ;}
	.st2{fill:#040000;}
	.st3{fill:#198B3B;}
	.st4{fill:#ED6B2D;}
</style>
<path class="st0" d="M316.2,288c-11.5,3.7-19.6,13-22.4,24.3l-42.4-72.7c-4.6-7.9-12.8-29.8-25.4-21.6c-7,4.6-4.6,18.2-4.6,25.3
	v156.5c0,7.8-2.5,21.8,6.4,25.6c7.6,3.2,12-2.8,15.5-8.3l12.7-19.7l27.3-42.6l1.8-2.8c4.2-6.5-6.2-12.5-10.4-6.1l-19.3,30
	c-7.2,11.2-15,22.2-21.8,33.6c0-2-0.2-4.1-0.2-6V238.1c0-1.4,0.1-3,0.2-4.5c1.6,2.7,3.4,5.3,4.9,7.8l46.9,80.3l1.1,1.9
	c1.6,2.7,4.3,3.3,6.6,2.6h5.5c2.1,0,4-1.1,5.1-2.8c0.1-0.1,0.1-0.2,0.2-0.3l0,0c0.4-0.8,0.7-1.7,0.8-2.9
	c0.3-10.6,7.8-19.9,18.5-21.5c11.9-1.8,23,6.3,24.8,18.2c1.4,9.3-3.3,18.5-11.7,22.7c-10.6,5.4-23.1,1-28.9-9
	c-3.9-6.7-14.3-0.6-10.4,6.1l0,0c6.7,11.5,19.5,18.5,32.9,17.1c12.8-1.4,23.8-9.9,28.3-22C367.7,305.9,342.2,279.6,316.2,288z
	 M233.5,227.2c0-0.2,0-0.5-0.1-0.5C233.6,226.8,233.6,227,233.5,227.2z M230.6,227.7v-0.1C230.5,227.6,230.5,227.7,230.6,227.7z
	 M230.3,415.2c-0.1-0.5,0.1-0.7,0.4-0.7c-0.1,0.2-0.2,0.3-0.2,0.5L230.3,415.2z"/>
<g class="st1">
	<path class="st2" d="M594.5,111.1c0,4.7-0.8,9.3-2.5,13.8c-1.6,4.5-4,8.3-7.1,11.3c-4.2,4.1-8.9,7.3-14,9.4
		c-5.2,2.1-11.6,3.2-19.2,3.2h-16.9V183h-27.1V77.9h44.6c6.7,0,12.3,0.6,16.9,1.7c4.6,1.2,8.6,2.9,12.2,5.2
		c4.2,2.8,7.5,6.3,9.7,10.7C593.4,99.8,594.5,105,594.5,111.1z M566.5,111.7c0-3-0.8-5.5-2.4-7.6c-1.6-2.1-3.5-3.6-5.6-4.5
		c-2.8-1.1-5.6-1.7-8.3-1.9c-2.7-0.1-6.3-0.2-10.7-0.2h-4.7v31.4h7.8c4.6,0,8.4-0.3,11.4-0.8c3-0.6,5.5-1.7,7.5-3.4
		c1.7-1.5,3-3.3,3.8-5.4S566.5,114.7,566.5,111.7z"/>
	<path class="st2" d="M660.3,174.6c-1.4,1-3.1,2.3-5.1,3.7c-2,1.5-3.9,2.6-5.7,3.5c-2.5,1.1-5.1,2-7.8,2.5c-2.7,0.5-5.6,0.8-8.8,0.8
		c-7.5,0-13.8-2.3-18.9-7c-5.1-4.7-7.6-10.6-7.6-17.9c0-5.8,1.3-10.5,3.9-14.2c2.6-3.7,6.3-6.6,11-8.7c4.7-2.1,10.5-3.6,17.5-4.5
		c7-0.9,14.2-1.6,21.7-2v-0.4c0-4.4-1.8-7.4-5.4-9.1c-3.6-1.7-8.8-2.5-15.8-2.5c-4.2,0-8.7,0.7-13.4,2.2c-4.8,1.5-8.2,2.6-10.2,3.4
		h-2.3v-19.1c2.7-0.7,7-1.5,13.1-2.5c6-1,12.1-1.4,18.2-1.4c14.4,0,24.9,2.2,31.3,6.7s9.6,11.4,9.6,20.9V183h-25.2V174.6z
		 M660.3,162.3v-16.5c-3.4,0.3-7.2,0.7-11.2,1.2c-4,0.5-7,1.1-9.1,1.7c-2.5,0.8-4.5,2-5.8,3.5c-1.3,1.5-2,3.5-2,6c0,1.6,0.1,3,0.4,4
		c0.3,1,1,2,2.1,3c1.1,0.9,2.4,1.6,3.9,2.1c1.5,0.4,3.9,0.7,7.1,0.7c2.5,0,5.1-0.5,7.7-1.5S658.3,163.9,660.3,162.3z"/>
	<path class="st2" d="M766.3,127.9h-2.3c-1.1-0.4-2.8-0.7-5.2-0.8c-2.4-0.2-4.4-0.3-6-0.3c-3.6,0-6.8,0.2-9.6,0.7
		c-2.8,0.5-5.8,1.3-8.9,2.4V183h-25.5v-79.3h25.5v11.6c5.6-4.8,10.4-8,14.6-9.6c4.1-1.6,7.9-2.4,11.4-2.4c0.9,0,1.9,0,3,0.1
		c1.1,0,2.1,0.1,3,0.2V127.9z"/>
	<path class="st2" d="M831.4,182.3c-2.7,0.7-5.6,1.3-8.7,1.7c-3.1,0.4-6.8,0.6-11.2,0.6c-9.9,0-17.2-2-22.1-6
		c-4.8-4-7.2-10.8-7.2-20.5v-37.1h-10.4v-17.2h10.4V81.1h25.5v22.7h23.7v17.2h-23.7v28.1c0,2.8,0,5.2,0.1,7.3c0,2.1,0.4,3.9,1.1,5.6
		c0.7,1.6,1.8,3,3.5,3.9c1.7,1,4.1,1.4,7.3,1.4c1.3,0,3-0.3,5.2-0.8c2.1-0.6,3.6-1.1,4.5-1.6h2.1V182.3z"/>
	<path class="st2" d="M926.2,183h-25.5v-39.3c0-3.2-0.2-6.4-0.5-9.6c-0.3-3.2-0.9-5.5-1.7-7c-0.9-1.7-2.3-3-4.1-3.8
		c-1.8-0.8-4.3-1.2-7.6-1.2c-2.3,0-4.6,0.4-7,1.1c-2.4,0.8-5,2-7.7,3.6V183h-25.5v-79.3h25.5v8.8c4.5-3.5,8.8-6.2,13-8.1
		c4.2-1.9,8.8-2.8,13.9-2.8c8.6,0,15.2,2.5,20.1,7.5c4.8,5,7.2,12.4,7.2,22.4V183z"/>
	<path class="st2" d="M1027.6,148.1h-58.2c0.4,6.2,2.7,11,7.1,14.3c4.4,3.3,10.8,4.9,19.2,4.9c5.4,0,10.6-1,15.6-2.9
		c5-1.9,9-4,11.9-6.2h2.8v20.4c-5.7,2.3-11.2,4-16.2,5c-5.1,1-10.7,1.6-16.9,1.6c-15.9,0-28.1-3.6-36.6-10.7
		c-8.5-7.2-12.7-17.3-12.7-30.6c0-13.1,4-23.4,12-31.1c8-7.6,19-11.5,33-11.5c12.9,0,22.6,3.3,29.1,9.8c6.5,6.5,9.7,15.9,9.7,28.1
		V148.1z M1002.3,133.2c-0.1-5.3-1.5-9.3-4-12c-2.5-2.7-6.4-4-11.6-4c-4.9,0-8.9,1.3-12.1,3.8c-3.2,2.5-4.9,6.6-5.3,12.2H1002.3z"/>
	<path class="st2" d="M1103,127.9h-2.3c-1.1-0.4-2.8-0.7-5.2-0.8c-2.4-0.2-4.4-0.3-6-0.3c-3.6,0-6.8,0.2-9.6,0.7
		c-2.8,0.5-5.8,1.3-8.9,2.4V183h-25.5v-79.3h25.5v11.6c5.6-4.8,10.4-8,14.6-9.6c4.1-1.6,7.9-2.4,11.4-2.4c0.9,0,1.9,0,3,0.1
		c1.1,0,2.1,0.1,3,0.2V127.9z"/>
</g>
<g class="st1">
	<path class="st2" d="M1207,184.1c-7.8,0-15-1.2-21.6-3.5c-6.6-2.3-12.3-5.7-17-10.3c-4.8-4.6-8.4-10.3-11-17.1s-3.9-14.7-3.9-23.6
		c0-8.3,1.2-15.9,3.7-22.7s6.1-12.6,10.9-17.4c4.6-4.7,10.2-8.3,17-10.8c6.8-2.5,14.1-3.8,22.1-3.8c4.4,0,8.4,0.2,12,0.7
		s6.8,1.1,9.8,1.9c3.2,0.9,6,1.9,8.6,3c2.6,1.1,4.8,2.1,6.7,3.1v25.5h-3.1c-1.3-1.1-3-2.5-5-4c-2-1.5-4.3-3.1-6.8-4.6
		c-2.6-1.5-5.4-2.8-8.4-3.8s-6.2-1.5-9.7-1.5c-3.8,0-7.4,0.6-10.9,1.8c-3.4,1.2-6.6,3.2-9.5,6c-2.8,2.7-5,6.2-6.7,10.6
		c-1.7,4.4-2.6,9.8-2.6,16.1c0,6.6,0.9,12.1,2.8,16.5c1.9,4.4,4.2,7.9,7,10.4c2.9,2.6,6.1,4.4,9.6,5.5c3.5,1.1,7,1.7,10.4,1.7
		c3.3,0,6.6-0.5,9.8-1.5c3.2-1,6.2-2.3,8.9-4c2.3-1.4,4.4-2.8,6.4-4.4c2-1.5,3.6-2.9,4.9-4h2.8v25.1c-2.6,1.2-5.2,2.3-7.6,3.3
		c-2.4,1-4.9,1.9-7.6,2.7c-3.4,1-6.7,1.7-9.7,2.3C1216.4,183.9,1212.3,184.1,1207,184.1z"/>
	<path class="st2" d="M1288.2,182.1h-25.5V72.2h25.5V182.1z"/>
	<path class="st2" d="M1393.1,142.5c0,13-3.8,23.3-11.4,30.8c-7.6,7.5-18.3,11.3-32,11.3c-13.7,0-24.4-3.8-32-11.3
		c-7.6-7.5-11.4-17.8-11.4-30.8c0-13.1,3.8-23.4,11.5-30.9c7.6-7.5,18.3-11.2,31.9-11.2c13.8,0,24.5,3.8,32.1,11.3
		S1393.1,129.4,1393.1,142.5z M1361.9,161.7c1.6-2,2.9-4.5,3.7-7.3c0.8-2.8,1.2-6.8,1.2-11.8c0-4.7-0.4-8.6-1.3-11.7
		c-0.8-3.2-2-5.7-3.5-7.6c-1.5-1.9-3.3-3.3-5.4-4.1c-2.1-0.8-4.4-1.2-6.8-1.2c-2.4,0-4.6,0.3-6.5,1c-1.9,0.7-3.7,2-5.5,4
		c-1.6,1.8-2.8,4.4-3.7,7.6c-0.9,3.2-1.4,7.2-1.4,12.1c0,4.3,0.4,8.1,1.2,11.3c0.8,3.2,2,5.7,3.5,7.7c1.5,1.8,3.3,3.2,5.4,4
		s4.5,1.3,7.2,1.3c2.3,0,4.5-0.4,6.6-1.2C1358.6,164.9,1360.4,163.6,1361.9,161.7z"/>
	<path class="st2" d="M1462,181.4c-2.7,0.7-5.6,1.3-8.7,1.7c-3.1,0.4-6.8,0.6-11.2,0.6c-9.9,0-17.2-2-22.1-6
		c-4.8-4-7.2-10.8-7.2-20.5V120h-10.4v-17.2h10.4V80.2h25.5v22.7h23.7V120h-23.7v28.1c0,2.8,0,5.2,0.1,7.3c0,2.1,0.4,3.9,1.1,5.6
		c0.7,1.6,1.8,3,3.5,3.9s4.1,1.4,7.3,1.4c1.3,0,3-0.3,5.2-0.8c2.1-0.6,3.6-1.1,4.5-1.6h2.1V181.4z"/>
	<path class="st2" d="M1556.8,182.1h-25.5v-39.3c0-3.2-0.2-6.4-0.5-9.6c-0.3-3.2-0.9-5.5-1.7-7c-0.9-1.7-2.3-3-4.1-3.8
		c-1.8-0.8-4.3-1.2-7.6-1.2c-2.3,0-4.6,0.4-7,1.1c-2.4,0.8-5,2-7.7,3.6v56.2h-25.5V72.2h25.5v39.3c4.5-3.5,8.8-6.2,13-8.1
		c4.2-1.9,8.8-2.8,13.9-2.8c8.6,0,15.2,2.5,20.1,7.5c4.8,5,7.2,12.4,7.2,22.4V182.1z"/>
	<path class="st2" d="M1606.4,91.5h-26.9V72.2h26.9V91.5z M1605.6,182.1h-25.5v-79.3h25.5V182.1z"/>
	<path class="st2" d="M1709.2,182.1h-25.5v-39.3c0-3.2-0.2-6.4-0.5-9.6c-0.3-3.2-0.9-5.5-1.7-7c-0.9-1.7-2.3-3-4.1-3.8
		c-1.8-0.8-4.3-1.2-7.6-1.2c-2.3,0-4.6,0.4-7,1.1c-2.4,0.8-5,2-7.7,3.6v56.2h-25.5v-79.3h25.5v8.8c4.5-3.5,8.8-6.2,13-8.1
		c4.2-1.9,8.8-2.8,13.9-2.8c8.6,0,15.2,2.5,20.1,7.5c4.8,5,7.2,12.4,7.2,22.4V182.1z"/>
	<path class="st2" d="M1809.6,173c0,7.4-1.1,13.7-3.2,18.8s-5.1,9.1-8.9,11.9c-3.8,2.9-8.4,5-13.8,6.3c-5.4,1.3-11.5,1.9-18.2,1.9
		c-5.5,0-10.9-0.3-16.3-1c-5.3-0.7-10-1.5-13.9-2.4v-19.8h3.1c3.1,1.2,6.9,2.3,11.3,3.4c4.5,1,8.5,1.5,12,1.5
		c4.7,0,8.5-0.4,11.5-1.3c2.9-0.9,5.2-2.1,6.7-3.7c1.5-1.5,2.5-3.4,3.2-5.8c0.7-2.4,1-5.2,1-8.5v-1.5c-3.1,2.5-6.4,4.5-10.2,5.9
		c-3.7,1.5-7.8,2.2-12.4,2.2c-11.1,0-19.6-3.3-25.7-10c-6-6.7-9-16.8-9-30.5c0-6.5,0.9-12.2,2.7-16.9c1.8-4.8,4.4-8.9,7.8-12.4
		c3.1-3.3,6.9-5.9,11.5-7.7s9.2-2.8,13.9-2.8c4.3,0,8.2,0.5,11.7,1.5c3.5,1,6.7,2.4,9.6,4.2l0.9-3.5h24.7V173z M1784.1,157.1v-35.9
		c-1.5-0.6-3.2-1.1-5.4-1.4c-2.1-0.4-4-0.5-5.7-0.5c-6.7,0-11.7,1.9-15,5.8c-3.3,3.8-5,9.2-5,16.1c0,7.6,1.4,12.9,4.3,16
		c2.8,3,7.1,4.5,12.6,4.5c2.5,0,5-0.4,7.5-1.2S1782.1,158.4,1784.1,157.1z"/>
</g>
<path class="st3" d="M219.1,212c-2.7-0.2-5.4,0-8.1,0H56.7c-8.7,0-17.6-0.4-26.3,0c-10.5,0.5-14.6,13.4-5.6,19.3
	c2.9,1.9,6,3.5,9,5.2l82,47.8c-22.5,5.8-34.3,33.6-18.7,53.5c16.8,21.3,51.8,14.2,59-11.9c4.2-15-2.8-30.7-16.1-38.4
	c-6.7-3.9-12.7,6.5-6,10.4l0,0c9.8,5.8,14.2,17.8,9.3,28.4c-5.1,10.9-18.1,15.5-29,10.4c-8.5-4-13.5-13.1-12.3-22.4
	c1.4-10.9,10.8-18.7,21.5-19c0,0,0,0,0.1,0c3.3,0,6-2.7,6-6V284c0.9-2.4,0.4-5.3-2.5-7H127l-72.5-42.2l-17.4-10.1
	c-0.3-0.2-0.7-0.4-1-0.6h177.3c0.1,0,0.2,0,0.3,0c-0.9,0.6-1.7,1.2-2.6,1.7l-20,12.8l-39.2,25.1l-2.5,1.6
	c-6.5,4.2-0.5,14.5,6.1,10.4l33.4-21.4c11.9-7.6,24.2-14.8,35.7-22.9C233.2,225.2,229.7,212.6,219.1,212z M30.3,224.1
	c-0.1,0-0.1,0-0.2-0.1C30.1,224.1,30.2,224.1,30.3,224.1z M218.2,221.1c0.1-0.1,0.2-0.1,0.3-0.1C218.4,221,218.3,221.1,218.2,221.1z
	"/>
<path class="st4" d="M426.1,203.2l-19.7-12.6l-42.6-27.3l-2.8-1.8c-6.5-4.2-12.5,6.2-6,10.4l30,19.3c11.2,7.2,22.2,15,33.6,21.8
	c-2,0-4.1,0.2-6,0.2H247c-1.4,0-3-0.1-4.6-0.2c2.7-1.6,5.3-3.4,7.8-4.9l80.3-46.9l1.9-1.1c2.8-1.6,3.4-4.5,2.5-6.9v-5.4
	c0-2.4-1.4-4.4-3.4-5.4h-0.1c-0.1-0.1-0.3-0.1-0.5-0.2h-0.1c-0.6-0.2-1.2-0.3-1.9-0.3c0,0,0,0-0.1,0c-12,0-21.7-9.7-21.7-21.8
	c0-12,9.7-21.7,21.8-21.7c8.2,0,15.7,4.6,19.4,11.9c5.4,10.6,1,23.1-9,29c-6.7,3.9-0.6,14.3,6.1,10.4l0,0
	c11.5-6.8,18.5-19.5,17.1-32.9c-1.4-12.8-9.9-23.8-22-28.3c-25.7-9.6-52,16-43.6,41.9c3.7,11.5,13,19.6,24.2,22.4l-72.6,42.4
	c-7.9,4.6-29.8,12.8-21.6,25.4c4.6,7,18.2,4.6,25.3,4.6h156.5c7.8,0,21.8,2.5,25.6-6.3C437.5,211.2,431.6,206.8,426.1,203.2z
	 M235.5,213.1c0.2-0.2,0.4-0.2,0.6-0.1C235.9,213,235.6,213,235.5,213.1z M236.5,216h0.1C236.6,216,236.6,216.1,236.5,216z
	 M423.4,215.9c0.2,0.1,0.3,0.2,0.5,0.2c0.1,0,0.2,0.2,0.3,0.2C423.7,216.3,423.5,216.2,423.4,215.9z"/>
<path class="st2" d="M233.4,47.8c0-8.7,0.4-17.6,0-26.3c-0.5-10.4-13.3-14.6-19.2-5.6c-1.9,2.9-3.5,6-5.2,9l-47.3,81.8
	c-2.3-9.2-8-17.3-16.6-21.8c-11.1-5.9-24.5-5.1-34.8,2c-21.6,15.3-17.6,49.5,7.1,59.2c15.6,6.2,32.9-0.9,41.2-15
	c4-6.7-6.4-12.7-10.4-6.1l0,0c-6.4,10.8-20.1,14.9-30.8,7.7c-8.4-5.8-11.7-16.7-8-26.3c3.8-9.4,13.7-14.9,23.7-13.3
	c10.4,1.9,17.4,11,17.7,21.3v0.1c0,3.3,2.7,6,6,6h5.5c2.4,0.7,5.1,0.2,6.7-2.6l0,0l41.9-72.5l10-17.4c0.2-0.3,0.3-0.5,0.5-0.8v177.1
	v0.1c-0.5-0.8-1.1-1.6-1.6-2.5l-12.7-20L182.2,143l-1.6-2.4c-4.1-6.5-14.5-0.5-10.4,6.1l21.2,33.4c7.6,11.9,14.6,24.2,22.7,35.7
	c6.1,8.7,18.7,5.1,19.2-5.5c0.1-2.7,0-5.4,0-8.1V47.8H233.4z M221.2,21.5c0-0.1,0.1-0.2,0.2-0.4C221.3,21.2,221.3,21.3,221.2,21.5z
	 M224.4,209.4L224.4,209.4L224.4,209.4z M224.4,22.3C224.4,22.2,224.4,22.2,224.4,22.3c0,0,0.2-0.2,0.1-0.3
	C224.6,22.1,224.5,22.2,224.4,22.3z"/>
<g class="st1">
	<path class="st0" d="M585.9,347.8c0,2.4-0.9,4.5-2.7,6.3s-7,2.5-15.7,2.3l-3.5-10.5c2.6,0.3,4.8,0.5,6.7,0.5c2,0,3.3-0.2,3.9-0.6
		c0.6-0.4,0.9-1,0.9-1.9v-25.7h-13c-1.1,15.8-3.9,28.7-8.5,38.8l-9.2-5.8c4.9-11.3,7.3-25.8,7.3-43.5v-53.3h33.7V347.8z
		 M575.6,280.4v-15.7h-12.9v15.7H575.6z M575.6,307.8v-17.1h-12.9v17.1H575.6z M649.3,348.3l-6.4,8.7c-4.9-2.9-10.2-6.9-15.7-12
		c-4.7,4.9-9.1,8.7-13.1,11.5l-7.2-7.9c5.5-3.8,9.9-7.7,13.2-11.6c-7.2-10.8-11.8-22-13.9-33.6h-1.3v53.1h-10.6V253.8h51.5
		c0,6.3-0.5,12.5-1.6,18.4c-1,5.9-2.2,9.6-3.5,11.1s-3,2.7-4.9,3.5c-1.9,0.9-7,1.3-15.2,1.3l-4.1-10.1c9.7,0.2,14.9-0.4,15.8-1.8
		c0.9-1.4,1.7-5.5,2.4-12.3h-29.7v29.2h39.9c-1.5,18.7-5.4,33.1-11.7,43.1C636.7,339.8,642,343.9,649.3,348.3z M633.7,303.3h-16.7
		c1.4,7.9,4.5,15.9,9.3,24.1C629.3,322.1,631.8,314.1,633.7,303.3z"/>
	<path class="st0" d="M806.9,318.2h-53.8c-3.5,4.1-8,8.1-13.5,11.9v15.6c6.5-0.9,13.9-2.5,22.4-4.7l0.1,9.7
		c-11.8,3.1-23.1,5.3-33.7,6.5l-2.2-8.6c2.1-1.1,3.2-2.8,3.2-5v-7.6c-8.3,4.1-15.6,7.1-22,9l-4.3-9.3c14.7-4.1,26.9-10,36.4-17.6
		h-35.6v-9.6h47.3c-0.6-1.6-1.6-3.5-2.8-5.7l10.9-2.1c1,1.5,2.3,4.1,3.9,7.8h43.9V318.2z M746.1,304.6h-10.4v-17.6h-10.6
		c-1.2,9.2-5.4,16-12.8,20.3l-7-7.2c5.7-2.3,8.9-6.7,9.8-13.1h-10.6v-8.3h31.3v-6.8h-24.4v-17.9h10v9.8h14.5v-11.8h10.2V304.6z
		 M807.2,273.5h-23.8v15.8h21v9.2h-51.5v-9.2h20.4v-15.8H750v-9h23.2v-12.6h10.2v12.6h23.8V273.5z M807.6,348l-5.3,9.5
		c-13.2-3.3-23.1-7.6-29.4-12.9c-6.4-5.3-11.4-12.5-15-21.8L768,321c2.2,4.8,5.1,9.2,8.9,13.2c6.9-4.1,13.1-8.6,18.6-13.6l8,6.4
		c-5.2,4.7-11.1,9.2-17.8,13.5C792.9,344.2,800.2,346.6,807.6,348z"/>
	<path class="st0" d="M966.2,348.5l-6.8,8.8c-22.9-17.7-38-36.3-45.3-55.7c-5.7,21.8-20.7,40.2-45.1,55.1l-7.1-8.7
		c31-19.6,46.4-45.3,46.4-76.9v-19.2h11.2v24.7c0,13,4.3,25.8,12.9,38.3C940.9,327.3,952.2,338.5,966.2,348.5z"/>
	<path class="st0" d="M1124.5,281.5h-32.3v63c0,3.1-0.9,5.6-2.6,7.6c-1.7,1.9-3.6,3.1-5.6,3.6c-2,0.5-6.1,0.7-12.2,0.7
		c-2.8,0-6.5-0.1-11.2-0.2l-3.3-10.7c5.9,0.3,12.7,0.5,20.4,0.5c2.2,0,3.3-1.2,3.3-3.6v-55.5c-5.4,11.9-13,23-22.9,33.5
		c-9.9,10.5-20.5,18.5-31.9,24.2l-6-9.6c11-5.2,21.2-12.6,30.6-22.4c9.5-9.7,16.6-20.1,21.4-31.2h-49.4v-10.4h58v-19.3h11.1v19.3
		h32.3V281.5z"/>
	<path class="st0" d="M1219.2,334.7l-7.3,7.7c-4.8-5.9-7.5-9.2-8.2-10c-3.1,6.8-9.1,15.1-18,24.7l-6.4-8.6
		c8.2-8.7,13.9-16.8,17-24.3c-5.2-5.5-10-10.2-14.4-14.1c2.2-8.9,4-17.1,5.4-24.5c-2.3,0.3-4.7,0.5-7,0.6l-0.9-9.8l9.7-0.8
		c1.9-13.6,2.9-22.1,3.1-25.4l9.9,1.6c-1.1,10-2,17.5-2.8,22.6c2.6-0.3,4.9-0.7,6.8-1.1c0.3-3.7,0.5-6.8,0.5-9.4h9.8
		c0.1,0.8,0,3.3-0.2,7.7c0.7,0,1.7-0.2,2.9-0.5l0.2,10.1c-1.5,0.5-2.8,0.8-3.9,0.8c-1.6,16-4,29.1-7.3,39.4
		C1213.5,327.7,1217.2,332.1,1219.2,334.7z M1205,283.7c-1.7,0.3-4.1,0.6-7.4,0.9c-1.2,7-2.7,14.4-4.5,22.2l6.8,6.4
		C1201.9,306.4,1203.5,296.5,1205,283.7z M1239.3,328.7c-5.6,11.2-10.9,19.6-15.9,25.1l-8.5-6c6.3-7.3,11.3-15.2,15.3-23.8
		L1239.3,328.7z M1282.9,320.3h-28v35.4h-10.3v-35.4h-28.4v-9.4h28.4v-7.7h-17.6v-34.3h-7.2v-9.2h7.2v-8.4h10.2v8.4h24.6v-8.4h10.2
		v8.4h8.9v9.2h-8.9v34.3h-17.2v7.7h28V320.3z M1261.9,277.1v-8.2h-24.6v8.2H1261.9z M1261.9,294.1v-8.3h-24.6v8.3H1261.9z
		 M1284,348.3l-8.8,5.6c-4.2-8.4-9.1-16.7-14.6-25l8.7-5.2C1275.6,333.2,1280.5,341.3,1284,348.3z"/>
	<path class="st0" d="M1443.8,284.9l-6.2,9.2c-18.5-8.7-34.2-18.5-47-29.5c-11.7,9.7-26.8,19.4-45.2,28.9l-7.1-8.7
		c22.2-10.4,39-21.6,50.4-33.9l11.2,4.1c-0.7,0.8-1.3,1.5-1.9,2.2C1409.3,266.9,1424.6,276.2,1443.8,284.9z M1429.2,356.8h-11v-6.2
		h-55v6.2H1352V308h77.2V356.8z M1418.2,340.1v-21.7h-55v21.7H1418.2z M1417.9,295.3H1364V285h53.9V295.3z"/>
	<path class="st0" d="M1600.3,319.3h-45.9v37.4h-10.7v-37.4h-46v-10.6h46v-43.1h-42.9v-10.5h97v10.5h-43.4v43.1h45.9V319.3z
		 M1531.4,299.5l-10,4.7c-3.4-8.8-8.5-18.2-15.2-28.2l9.9-5C1521.9,279.5,1527,289,1531.4,299.5z M1593,276.1
		c-5.1,11.4-10.7,20.9-16.7,28.5l-9.7-4.9c5.5-6.8,11.1-16.3,16.7-28.5L1593,276.1z"/>
	<path class="st0" d="M1760.5,295.2l-9.1,7.4c-2.2-3.6-4.7-7.1-7.3-10.5c-30.3,3.6-58.4,5.8-84.3,6.6l-2.5-10.1
		c11.3-3.7,23.5-16.3,36.7-37.9l11.9,2.4c-7.8,12.9-17.1,24.4-27.9,34.5c15.4-0.6,34.8-2.1,58.2-4.7c-4.9-5.5-10.8-11.1-17.7-16.8
		l9.1-7.1C1741.8,271.4,1752.7,283.4,1760.5,295.2z M1750.1,356.4h-10.7V351h-62v5.4h-10.8v-49.6h83.5V356.4z M1739.4,340.6v-23.4
		h-62v23.4H1739.4z"/>
</g>
</svg>
