<svg id="群組1" xmlns="http://www.w3.org/2000/svg" viewBox="0 0 1339.7 1000.24"><defs><style>.cls-1{fill:#666;}.cls-2{isolation:isolate;}.cls-3{fill:#040000;}.cls-4{fill:#198b3b;}.cls-5{fill:#ed6b2d;}</style></defs><path class="cls-1" d="M767.57,354.18a40.55,40.55,0,0,0-27,29.25l-51.05-87.51c-5.53-9.51-15.4-35.88-30.57-26-8.43,5.53-5.54,21.9-5.54,30.45V488.76c0,9.39-3,26.25,7.71,30.82,9.14,3.85,14.44-3.37,18.65-10l15.29-23.72L728,434.59l2.16-3.37c5.06-7.82-7.46-15-12.52-7.34L694.38,460c-8.67,13.49-18.06,26.73-26.24,40.45,0-2.41-.24-4.94-.24-7.22V294.11c0-1.68.12-3.61.24-5.42,1.92,3.26,4.09,6.38,5.9,9.39l56.45,96.67,1.33,2.29a6.65,6.65,0,0,0,7.94,3.13h6.62a7.33,7.33,0,0,0,6.14-3.38c.12-.12.12-.24.24-.36h0a9,9,0,0,0,1-3.49c.36-12.76,9.39-23.95,22.27-25.88a26.18,26.18,0,0,1,15.77,49.24C779,422.8,764,417.5,757,405.46c-4.7-8.06-17.22-.72-12.52,7.35h0c8.06,13.84,23.47,22.27,39.6,20.58a41.15,41.15,0,0,0,34.07-26.48C829.56,375.73,798.87,344.07,767.57,354.18ZM668,281c0-.24,0-.6-.12-.6C668.14,280.51,668.14,280.75,668,281Zm-3.49.6v-.12C664.41,281.47,664.41,281.59,664.53,281.59Zm-.36,225.71c-.13-.6.12-.84.48-.84-.12.24-.24.36-.24.6Z"/><g class="cls-2"><path class="cls-3" d="M86.8,636.14a38.7,38.7,0,0,1-2.5,13.8,29.07,29.07,0,0,1-7.1,11.3,44.23,44.23,0,0,1-14,9.4c-5.2,2.1-11.6,3.2-19.2,3.2H27.1V708H0V602.94H44.6a73.4,73.4,0,0,1,16.9,1.7,42,42,0,0,1,12.2,5.2,27.67,27.67,0,0,1,9.7,10.7C85.7,624.84,86.8,630,86.8,636.14Zm-28,.6a12.11,12.11,0,0,0-2.4-7.6,14,14,0,0,0-5.6-4.5,28.41,28.41,0,0,0-8.3-1.9c-2.7-.1-6.3-.2-10.7-.2H27.1v31.4h7.8a70.64,70.64,0,0,0,11.4-.8,16.22,16.22,0,0,0,7.5-3.4,13.64,13.64,0,0,0,3.8-5.4A21.26,21.26,0,0,0,58.8,636.74Z"/><path class="cls-3" d="M152.6,699.64c-1.4,1-3.1,2.3-5.1,3.7a36.64,36.64,0,0,1-5.7,3.5,35.48,35.48,0,0,1-7.8,2.5,47.94,47.94,0,0,1-8.8.8c-7.5,0-13.8-2.3-18.9-7s-7.6-10.6-7.6-17.9c0-5.8,1.3-10.5,3.9-14.2a26.08,26.08,0,0,1,11-8.7,62.66,62.66,0,0,1,17.5-4.5c7-.9,14.2-1.6,21.7-2v-.4c0-4.4-1.8-7.4-5.4-9.1s-8.8-2.5-15.8-2.5a44.12,44.12,0,0,0-13.4,2.2c-4.8,1.5-8.2,2.6-10.2,3.4h-2.3v-19.1c2.7-.7,7-1.5,13.1-2.5a110.73,110.73,0,0,1,18.2-1.4c14.4,0,24.9,2.2,31.3,6.7s9.6,11.4,9.6,20.9v54H152.7l-.1-8.4Zm0-12.3v-16.5c-3.4.3-7.2.7-11.2,1.2a62.53,62.53,0,0,0-9.1,1.7,12.71,12.71,0,0,0-5.8,3.5,8.86,8.86,0,0,0-2,6,14.94,14.94,0,0,0,.4,4,6.89,6.89,0,0,0,2.1,3,12.16,12.16,0,0,0,3.9,2.1,29.24,29.24,0,0,0,7.1.7,21.48,21.48,0,0,0,7.7-1.5A26.53,26.53,0,0,0,152.6,687.34Z"/><path class="cls-3" d="M258.6,652.94h-2.3a18.19,18.19,0,0,0-5.2-.8q-3.6-.3-6-.3a55.37,55.37,0,0,0-9.6.7,56.53,56.53,0,0,0-8.9,2.4V708H201.1v-79.3h25.5v11.6c5.6-4.8,10.4-8,14.6-9.6a31.53,31.53,0,0,1,11.4-2.4c.9,0,1.9,0,3,.1a26.61,26.61,0,0,1,3,.2Z"/><path class="cls-3" d="M323.7,707.34A70.59,70.59,0,0,1,315,709a88.85,88.85,0,0,1-11.2.6c-9.9,0-17.2-2-22.1-6s-7.2-10.8-7.2-20.5V646H264.1v-17.2h10.4v-22.7H300v22.7h23.7V646H300v28.1c0,2.8,0,5.2.1,7.3a14.34,14.34,0,0,0,1.1,5.6,7.78,7.78,0,0,0,3.5,3.9c1.7,1,4.1,1.4,7.3,1.4a25.4,25.4,0,0,0,5.2-.8,23.94,23.94,0,0,0,4.5-1.6h2.1l-.1,17.4Z"/><path class="cls-3" d="M418.5,708H393v-39.3c0-3.2-.2-6.4-.5-9.6a19.18,19.18,0,0,0-1.7-7,8.43,8.43,0,0,0-4.1-3.8,19.13,19.13,0,0,0-7.6-1.2,24.87,24.87,0,0,0-7,1.1,40.29,40.29,0,0,0-7.7,3.6V708H338.9v-79.3h25.5v8.8a65.24,65.24,0,0,1,13-8.1,33.21,33.21,0,0,1,13.9-2.8c8.6,0,15.2,2.5,20.1,7.5s7.2,12.4,7.2,22.4V708Z"/><path class="cls-3" d="M519.9,673.14H461.7c.4,6.2,2.7,11,7.1,14.3s10.8,4.9,19.2,4.9a43.6,43.6,0,0,0,15.6-2.9,48.33,48.33,0,0,0,11.9-6.2h2.8v20.4a92.5,92.5,0,0,1-16.2,5,87.42,87.42,0,0,1-16.9,1.6c-15.9,0-28.1-3.6-36.6-10.7s-12.7-17.3-12.7-30.6c0-13.1,4-23.4,12-31.1s19-11.5,33-11.5c12.9,0,22.6,3.3,29.1,9.8s9.7,15.9,9.7,28.1v8.9Zm-25.3-14.9c-.1-5.3-1.5-9.3-4-12s-6.4-4-11.6-4a19,19,0,0,0-12.1,3.8c-3.2,2.5-4.9,6.6-5.3,12.2Z"/><path class="cls-3" d="M595.3,652.94H593a18.19,18.19,0,0,0-5.2-.8q-3.6-.3-6-.3a55.37,55.37,0,0,0-9.6.7,56.53,56.53,0,0,0-8.9,2.4V708H537.8v-79.3h25.5v11.6c5.6-4.8,10.4-8,14.6-9.6a31.53,31.53,0,0,1,11.4-2.4c.9,0,1.9,0,3,.1a26.61,26.61,0,0,1,3,.2Z"/></g><g class="cls-2"><path class="cls-3" d="M736.5,707.84a65.23,65.23,0,0,1-21.6-3.5,45.16,45.16,0,0,1-17-10.3,45.87,45.87,0,0,1-11-17.1,72.43,72.43,0,0,1-.2-46.3,47.22,47.22,0,0,1,10.9-17.4,45.07,45.07,0,0,1,17-10.8,63.3,63.3,0,0,1,22.1-3.8,88.15,88.15,0,0,1,12,.7,81.22,81.22,0,0,1,9.8,1.9,71.51,71.51,0,0,1,8.6,3c2.6,1.1,4.8,2.1,6.7,3.1v25.5h-3.1c-1.3-1.1-3-2.5-5-4a80.13,80.13,0,0,0-6.8-4.6,45.78,45.78,0,0,0-8.4-3.8,30.34,30.34,0,0,0-9.7-1.5,33.23,33.23,0,0,0-10.9,1.8,26.26,26.26,0,0,0-9.5,6,28.79,28.79,0,0,0-6.7,10.6,44.88,44.88,0,0,0-2.6,16.1c0,6.6.9,12.1,2.8,16.5a29.2,29.2,0,0,0,7,10.4,25.8,25.8,0,0,0,9.6,5.5,34.8,34.8,0,0,0,10.4,1.7,32.83,32.83,0,0,0,9.8-1.5,37.78,37.78,0,0,0,8.9-4,60.11,60.11,0,0,0,6.4-4.4c2-1.5,3.6-2.9,4.9-4h2.8v25.1c-2.6,1.2-5.2,2.3-7.6,3.3a75.08,75.08,0,0,1-7.6,2.7c-3.4,1-6.7,1.7-9.7,2.3A64.54,64.54,0,0,1,736.5,707.84Z"/><path class="cls-3" d="M817.7,705.84H792.2V595.94h25.5Z"/><path class="cls-3" d="M922.7,666.24c0,13-3.8,23.3-11.4,30.8s-18.3,11.3-32,11.3-24.4-3.8-32-11.3-11.4-17.8-11.4-30.8,3.8-23.4,11.5-30.9,18.3-11.2,31.9-11.2c13.8,0,24.5,3.8,32.1,11.3S922.7,653.14,922.7,666.24Zm-31.2,19.2a20.94,20.94,0,0,0,3.7-7.3,45.42,45.42,0,0,0,1.2-11.8,42.94,42.94,0,0,0-1.3-11.7,19.88,19.88,0,0,0-3.5-7.6,12.6,12.6,0,0,0-5.4-4.1,19.07,19.07,0,0,0-6.8-1.2,18.88,18.88,0,0,0-6.5,1,14,14,0,0,0-5.5,4,19.27,19.27,0,0,0-3.7,7.6,45.17,45.17,0,0,0-1.4,12.1,47.18,47.18,0,0,0,1.2,11.3,21.14,21.14,0,0,0,3.5,7.7,13.18,13.18,0,0,0,5.4,4,20.09,20.09,0,0,0,7.2,1.3,18.38,18.38,0,0,0,6.6-1.2A13.84,13.84,0,0,0,891.5,685.44Z"/><path class="cls-3" d="M991.5,705.14a70.59,70.59,0,0,1-8.7,1.7,88.85,88.85,0,0,1-11.2.6c-9.9,0-17.2-2-22.1-6s-7.2-10.8-7.2-20.5v-37.2H931.9v-17.2h10.4v-22.6h25.5v22.7h23.7v17.1H967.8v28.1c0,2.8,0,5.2.1,7.3a14.34,14.34,0,0,0,1.1,5.6,7.78,7.78,0,0,0,3.5,3.9,15.74,15.74,0,0,0,7.3,1.4,25.4,25.4,0,0,0,5.2-.8,23.94,23.94,0,0,0,4.5-1.6h2.1v17.5Z"/><path class="cls-3" d="M1086.4,705.84h-25.5v-39.3c0-3.2-.2-6.4-.5-9.6a19.18,19.18,0,0,0-1.7-7,8.43,8.43,0,0,0-4.1-3.8,19.13,19.13,0,0,0-7.6-1.2,24.87,24.87,0,0,0-7,1.1,40.29,40.29,0,0,0-7.7,3.6v56.2h-25.5V595.94h25.5v39.3a65.24,65.24,0,0,1,13-8.1,33.21,33.21,0,0,1,13.9-2.8c8.6,0,15.2,2.5,20.1,7.5s7.2,12.4,7.2,22.4v51.6Z"/><path class="cls-3" d="M1136,615.24h-26.9v-19.3H1136Zm-.8,90.6h-25.5v-79.3h25.5Z"/><path class="cls-3" d="M1238.7,705.84h-25.5v-39.3c0-3.2-.2-6.4-.5-9.6a19.18,19.18,0,0,0-1.7-7,8.43,8.43,0,0,0-4.1-3.8,19.13,19.13,0,0,0-7.6-1.2,24.87,24.87,0,0,0-7,1.1,40.29,40.29,0,0,0-7.7,3.6v56.2h-25.5v-79.3h25.5v8.8a65.24,65.24,0,0,1,13-8.1,33.21,33.21,0,0,1,13.9-2.8c8.6,0,15.2,2.5,20.1,7.5s7.2,12.4,7.2,22.4v51.5Z"/><path class="cls-3" d="M1339.2,696.74c0,7.4-1.1,13.7-3.2,18.8a27.34,27.34,0,0,1-8.9,11.9,36.53,36.53,0,0,1-13.8,6.3,78.26,78.26,0,0,1-18.2,1.9,126.26,126.26,0,0,1-16.3-1c-5.3-.7-10-1.5-13.9-2.4v-19.8h3.1a98.19,98.19,0,0,0,11.3,3.4,56,56,0,0,0,12,1.5,40.91,40.91,0,0,0,11.5-1.3,15.27,15.27,0,0,0,6.7-3.7,13.07,13.07,0,0,0,3.2-5.8,30.5,30.5,0,0,0,1-8.5v-1.5a35.77,35.77,0,0,1-10.2,5.9,32.61,32.61,0,0,1-12.4,2.2c-11.1,0-19.6-3.3-25.7-10s-9-16.8-9-30.5a47.55,47.55,0,0,1,2.7-16.9,35.33,35.33,0,0,1,7.8-12.4,31.06,31.06,0,0,1,11.5-7.7,37.89,37.89,0,0,1,13.9-2.8,42.54,42.54,0,0,1,11.7,1.5,37.77,37.77,0,0,1,9.6,4.2l.9-3.5h24.7v70.2Zm-25.5-15.9v-35.9a22.2,22.2,0,0,0-5.4-1.4,30,30,0,0,0-5.7-.5c-6.7,0-11.7,1.9-15,5.8s-5,9.2-5,16.1c0,7.6,1.4,12.9,4.3,16s7.1,4.5,12.6,4.5a24.49,24.49,0,0,0,7.5-1.2A28.11,28.11,0,0,0,1313.7,680.84Z"/></g><path class="cls-4" d="M650.68,262.69c-3.25-.24-6.5,0-9.75,0H455.19c-10.47,0-21.19-.48-31.66,0-12.64.61-17.58,16.13-6.74,23.24,3.49,2.28,7.22,4.21,10.83,6.26l98.71,57.54c-27.08,7-41.29,40.44-22.51,64.4,20.22,25.64,62.36,17.09,71-14.33,5.06-18.05-3.37-36.95-19.38-46.22-8.06-4.7-15.28,7.82-7.22,12.52h0c11.8,7,17.09,21.43,11.2,34.19a26.22,26.22,0,0,1-49.72-14.45c1.68-13.12,13-22.51,25.88-22.87h.12a7.24,7.24,0,0,0,7.22-7.22v-6.38a6.65,6.65,0,0,0-3-8.43h-.12l-87.27-50.8-21-12.16c-.36-.24-.84-.48-1.2-.72H644.18c-1.08.72-2,1.44-3.13,2.05L617,294.71l-47.19,30.22-3,1.92c-7.83,5.06-.6,17.46,7.34,12.52l40.21-25.76c14.32-9.15,29.13-17.81,43-27.56C667.66,278.58,663.44,263.42,650.68,262.69ZM423.41,277.26c-.12,0-.12,0-.24-.12C423.17,277.26,423.29,277.26,423.41,277.26Zm226.19-3.61a.44.44,0,0,1,.36-.12C649.84,273.53,649.72,273.65,649.6,273.65Z"/><path class="cls-5" d="M899.87,252.1l-23.72-15.17-51.28-32.86-3.37-2.17c-7.83-5.05-15,7.47-7.22,12.52l36.11,23.23c13.48,8.67,26.72,18.06,40.45,26.25-2.41,0-4.94.24-7.23.24H684.27c-1.69,0-3.61-.12-5.54-.24,3.25-1.93,6.38-4.1,9.39-5.9l96.66-56.46,2.29-1.32a6.61,6.61,0,0,0,3-8.31v-6.5a7.24,7.24,0,0,0-4.09-6.5h-.12c-.12-.12-.36-.12-.6-.24h-.12a7.09,7.09,0,0,0-2.29-.36h-.12a26.19,26.19,0,1,1,23.47-38c6.5,12.76,1.21,27.81-10.83,34.91-8.07,4.69-.72,17.21,7.34,12.52h0c13.84-8.19,22.27-23.48,20.59-39.61A41.12,41.12,0,0,0,796.82,114c-30.94-11.56-62.59,19.26-52.48,50.43a40.59,40.59,0,0,0,29.13,27l-87.4,51c-9.51,5.54-35.87,15.41-26,30.58,5.54,8.42,21.91,5.53,30.46,5.53H878.92c9.39,0,26.24,3,30.82-7.58C913.59,261.73,906.49,256.43,899.87,252.1ZM670.42,264a.58.58,0,0,1,.73-.12A1.35,1.35,0,0,0,670.42,264Zm1.21,3.49h.12S671.75,267.63,671.63,267.51Zm225-.12c.24.12.36.24.6.24s.24.24.36.24C897,267.87,896.74,267.75,896.62,267.39Z"/><path class="cls-3" d="M667.9,65c0-10.47.48-21.18,0-31.66-.61-12.52-16-17.57-23.12-6.74-2.28,3.49-4.21,7.22-6.26,10.84l-56.93,98.46c-2.77-11.07-9.63-20.82-20-26.24a40.37,40.37,0,0,0-41.89,2.41c-26,18.42-21.19,59.59,8.55,71.26,18.78,7.47,39.6-1.08,49.59-18.05,4.82-8.07-7.7-15.29-12.52-7.35h0c-7.7,13-24.19,17.94-37.07,9.27a26.76,26.76,0,0,1-9.63-31.66,26.33,26.33,0,0,1,28.53-16c12.52,2.29,20.94,13.24,21.3,25.64v.12a7.25,7.25,0,0,0,7.23,7.23h6.62a6.62,6.62,0,0,0,8.06-3.13h0l50.44-87.28,12-20.94c.24-.36.36-.6.6-1V253.54c-.6-1-1.32-1.92-1.92-3l-15.29-24.08-30-46.83-1.92-2.89c-4.94-7.82-17.46-.6-12.52,7.35l25.52,40.2c9.15,14.33,17.57,29.13,27.32,43,7.35,10.47,22.51,6.14,23.12-6.62.12-3.25,0-6.5,0-9.75V65ZM653.21,33.37c0-.12.12-.24.24-.48C653.33,33,653.33,33.13,653.21,33.37Zm3.85,226.19Zm0-225.22h0s.24-.25.12-.37C657.3,34.09,657.18,34.22,657.06,34.34Z"/><g class="cls-2"><path class="cls-1" d="M78.2,906.84a8.63,8.63,0,0,1-2.7,6.3c-1.8,1.8-7,2.5-15.7,2.3l-3.5-10.5a60.55,60.55,0,0,0,6.7.5q3,0,3.9-.6a2.08,2.08,0,0,0,.9-1.9v-25.7h-13c-1.1,15.8-3.9,28.7-8.5,38.8l-9.2-5.8c4.9-11.3,7.3-25.8,7.3-43.5v-53.3H78.1l.1,93.4Zm-10.3-67.4v-15.7H55v15.7Zm0,27.4v-17.1H55v17.1Zm73.7,40.5-6.4,8.7a93.9,93.9,0,0,1-15.7-12,90.33,90.33,0,0,1-13.1,11.5l-7.2-7.9A67.37,67.37,0,0,0,112.4,896a88.71,88.71,0,0,1-13.9-33.6H97.2v53.1H86.6V812.84h51.5a100.78,100.78,0,0,1-1.6,18.4c-1,5.9-2.2,9.6-3.5,11.1a13.33,13.33,0,0,1-4.9,3.5c-1.9.9-7,1.3-15.2,1.3L108.8,837c9.7.2,14.9-.4,15.8-1.8s1.7-5.5,2.4-12.3H97.3v29.2h39.9c-1.5,18.7-5.4,33.1-11.7,43.1C129,898.84,134.3,902.94,141.6,907.34Zm-15.6-45H109.3a73,73,0,0,0,9.3,24.1C121.6,881.14,124.1,873.14,126,862.34Z"/><path class="cls-1" d="M299.2,877.24H245.4a69.84,69.84,0,0,1-13.5,11.9v15.6a201.75,201.75,0,0,0,22.4-4.7l.1,9.7a239.7,239.7,0,0,1-33.7,6.5l-2.2-8.6a5.41,5.41,0,0,0,3.2-5V895a142.32,142.32,0,0,1-22,9l-4.3-9.3c14.7-4.1,26.9-10,36.4-17.6H196.2v-9.6h47.3a48.68,48.68,0,0,0-2.8-5.7l10.9-2.1a54.68,54.68,0,0,1,3.9,7.8h43.9v9.7Zm-60.8-13.6H228V846H217.4c-1.2,9.2-5.4,16-12.8,20.3l-7-7.2c5.7-2.3,8.9-6.7,9.8-13.1H196.8v-8.3h31.3v-6.8H203.7V813h10v9.8h14.5V811h10.2Zm61.1-31.1H275.7v15.8h21v9.2H245.2v-9.2h20.4v-15.8H242.3v-9h23.2v-12.6h10.2v12.6h23.8Zm.4,74.5-5.3,9.5c-13.2-3.3-23.1-7.6-29.4-12.9s-11.4-12.5-15-21.8l10.1-1.8a48,48,0,0,0,8.9,13.2,114.22,114.22,0,0,0,18.6-13.6l8,6.4a135.88,135.88,0,0,1-17.8,13.5A80.11,80.11,0,0,0,299.9,907Z"/><path class="cls-1" d="M458.5,907.54l-6.8,8.8q-34.35-26.55-45.3-55.7-8.55,32.7-45.1,55.1l-7.1-8.7q46.5-29.4,46.4-76.9v-19.2h11.2v24.7c0,13,4.3,25.8,12.9,38.3S444.5,897.54,458.5,907.54Z"/><path class="cls-1" d="M616.8,840.54H584.5v63a11.18,11.18,0,0,1-8.2,11.2c-2,.5-6.1.7-12.2.7-2.8,0-6.5-.1-11.2-.2l-3.3-10.7c5.9.3,12.7.5,20.4.5q3.3,0,3.3-3.6v-55.5a122.6,122.6,0,0,1-22.9,33.5,113.74,113.74,0,0,1-31.9,24.2l-6-9.6a112.7,112.7,0,0,0,52-53.6H515.1V830h58v-19.3h11.1V830h32.3v10.5Z"/><path class="cls-1" d="M711.5,893.74l-7.3,7.7c-4.8-5.9-7.5-9.2-8.2-10-3.1,6.8-9.1,15.1-18,24.7l-6.4-8.6c8.2-8.7,13.9-16.8,17-24.3q-7.8-8.25-14.4-14.1c2.2-8.9,4-17.1,5.4-24.5-2.3.3-4.7.5-7,.6l-.9-9.8,9.7-.8c1.9-13.6,2.9-22.1,3.1-25.4l9.9,1.6c-1.1,10-2,17.5-2.8,22.6,2.6-.3,4.9-.7,6.8-1.1.3-3.7.5-6.8.5-9.4h9.8c.1.8,0,3.3-.2,7.7a13.48,13.48,0,0,0,2.9-.5l.2,10.1a12.87,12.87,0,0,1-3.9.8c-1.6,16-4,29.1-7.3,39.4C705.8,886.74,709.5,891.14,711.5,893.74Zm-14.2-51c-1.7.3-4.1.6-7.4.9q-1.8,10.5-4.5,22.2l6.8,6.4C694.2,865.44,695.8,855.54,697.3,842.74Zm34.3,45c-5.6,11.2-10.9,19.6-15.9,25.1l-8.5-6A101.66,101.66,0,0,0,722.5,883Zm43.6-8.4h-28v35.4H736.9v-35.4H708.5v-9.4h28.4v-7.7H719.3v-34.3h-7.2v-9.2h7.2v-8.4h10.2v8.4h24.6v-8.4h10.2v8.4h8.9v9.2h-8.9v34.3H747.1v7.7h28v9.4Zm-21-43.2v-8.2H729.6v8.2Zm0,17v-8.3H729.6v8.3Zm22.1,54.2-8.8,5.6a238.35,238.35,0,0,0-14.6-25l8.7-5.2A242.23,242.23,0,0,1,776.3,907.34Z"/><path class="cls-1" d="M936.1,843.94l-6.2,9.2q-27.75-13-47-29.5c-11.7,9.7-26.8,19.4-45.2,28.9l-7.1-8.7c22.2-10.4,39-21.6,50.4-33.9l11.2,4.1c-.7.8-1.3,1.5-1.9,2.2C901.6,825.94,916.9,835.24,936.1,843.94Zm-14.6,71.9h-11v-6.2h-55v6.2H844.3V867h77.2Zm-11-16.7v-21.7h-55v21.7Zm-.3-44.8H856.3V844h53.9Z"/><path class="cls-1" d="M1092.6,878.34h-45.9v37.4H1036v-37.4H990v-10.6h46v-43.1H993.1v-10.5h97v10.5h-43.4v43.1h45.9Zm-68.9-19.8-10,4.7A146.36,146.36,0,0,0,998.5,835l9.9-5A160.33,160.33,0,0,1,1023.7,858.54Zm61.6-23.4a134.78,134.78,0,0,1-16.7,28.5l-9.7-4.9c5.5-6.8,11.1-16.3,16.7-28.5Z"/><path class="cls-1" d="M1252.8,854.24l-9.1,7.4a123.25,123.25,0,0,0-7.3-10.5q-45.45,5.4-84.3,6.6l-2.5-10.1q17-5.55,36.7-37.9l11.9,2.4a161.08,161.08,0,0,1-27.9,34.5c15.4-.6,34.8-2.1,58.2-4.7a161,161,0,0,0-17.7-16.8l9.1-7.1C1234.1,830.44,1245,842.44,1252.8,854.24Zm-10.4,61.2h-10.7V910h-62v5.4h-10.8v-49.6h83.5Zm-10.7-15.8v-23.4h-62v23.4Z"/></g></svg>